<svg xmlns="http://www.w3.org/2000/svg" xmlns:xlink="http://www.w3.org/1999/xlink" preserveAspectRatio="xMidYMid meet" version="1.0" viewBox="-1.5 -0.9 247.6 479.4" zoomAndPan="magnify" style="fill: rgb(0, 0, 0);" original_string_length="11831"><g id="__id206_szpcf5idmp"><path d="M206.35,404.75c0,0,32.97,14.92,36.37,27.52s-28.94,22.81-43.23,14.3c-14.3-8.51-23.49-7.49-27.23-10.21 c-3.74-2.72-9.31-24.35-3.81-32.6C173.96,395.5,206.35,404.75,206.35,404.75z M88.65,405.99c-8.71,4.74-13.85,26.48-11.8,30.63 s10.66,7.52,19.36,21.71s42.08,20.19,44.92,7.46c2.85-12.73-22.67-48-22.67-48S97.37,401.25,88.65,405.99z" style="fill: inherit;"/></g><g id="__id207_szpcf5idmp"><path d="M211.15,169.34c0,0,7.91,14.33,6.89,36.54c-1.02,22.21-6.89,44.68-6.89,44.68s8.01,19.67-6.21,39.33 c-14.22,19.65-18.56-117.2-18.56-117.2L211.15,169.34z" style="fill: rgb(187, 88, 28);"/></g><g id="__id208_szpcf5idmp"><path d="M127.01,451.53c-0.97,0-1.96-0.1-2.96-0.29c-14.5-2.84-26.95-25.04-27.47-25.99 c-0.13-0.24-0.05-0.55,0.2-0.68c0.24-0.13,0.55-0.05,0.68,0.2c0.13,0.23,12.74,22.75,26.79,25.49c4.24,0.83,8.23-0.24,11.87-3.17 c0.21-0.17,0.53-0.14,0.7,0.08c0.17,0.21,0.14,0.53-0.08,0.7C133.72,450.3,130.45,451.53,127.01,451.53z M228.19,427.69 c3.28-0.7,5.76-2.45,7.37-5.2c0.14-0.24,0.06-0.54-0.18-0.68c-0.24-0.14-0.54-0.06-0.68,0.18c-1.46,2.5-3.72,4.09-6.72,4.72 c-14.33,3.06-41.2-16.11-41.47-16.31c-0.23-0.16-0.54-0.11-0.7,0.11c-0.16,0.22-0.11,0.54,0.11,0.7 c1.03,0.74,23.59,16.83,38.67,16.83C225.86,428.04,227.06,427.93,228.19,427.69z" style="fill: rgb(253, 239, 220);"/></g><g id="__id209_szpcf5idmp"><path d="M201.57,257.73c0.71,5.85,11.45,96.29,6.93,147.54c-0.1,1.13-0.85,2.08-1.93,2.45 c-5.65,1.92-23.83,6.91-38.84-2.08c-0.63-0.38-1.05-1.01-1.2-1.72c-1.17-5.76-6.4-32.4-6.48-48.52c0-0.94-0.14-1.86-0.43-2.75 c-1.82-5.54-8.75-27.07-10.28-39.01c0,0-4.32,25.53-14.02,49.02c-8.77,21.22-13.64,47.04-14.5,51.82c-0.1,0.56-0.34,1.07-0.7,1.51 c-2.91,3.55-17.11,18.14-42.39,0.46c-0.99-0.69-1.61-1.8-1.65-3.01c-0.34-10.58,0.97-36.82,5.11-57.41 c2.97-14.79-13.72-50.53-1.75-93.18c11.95-42.61,105.39-96.21,122.04-5.7C201.52,257.33,201.55,257.53,201.57,257.73z" style="fill: rgb(24, 75, 107);"/></g><g id="__id210_szpcf5idmp"><path d="M228.79,174.55c-17.14,11.72-30.32,11.08-30.32,11.08c3.58,23.59,6.37,59.73,7.01,68.28 c0.09,1.18-0.61,2.27-1.71,2.72c-9.84,4.06-29.4,4.04-35.29,3.94c-1.05-0.02-1.99-0.64-2.42-1.59l-8.01-17.52l-6.81,18.38 c-0.32,0.85-1.04,1.5-1.93,1.7c-15.49,3.51-36.22,3.42-51.52,2.66c-8.25-0.41-14.93-1.01-18.35-1.36c-1.42-0.15-2.48-1.36-2.44-2.78 l1.36-51.14l0.62-23.29l-3.81,1.48c-1.25,0.49-2.67,0-3.34-1.17c-1.21-2.11-2.94-4.24-5.03-6.35c-9.36-9.46-25.93-18.41-34.72-22.8 c-1.01-0.51-1.92-0.95-2.71-1.33c-1.59-0.77-2.03-2.83-0.9-4.19l23.95-28.62C75.66,94.9,101.9,89.07,107.56,88.1 c0.73-0.13,1.36-0.55,1.78-1.16c11.69-16.85,26.78-12.78,30.25-11.55c0.5,0.18,1.04,0.2,1.56,0.07c19-4.62,26.38,7.17,28.22,10.99 c0.36,0.74,1.04,1.24,1.84,1.44c32.91,8.22,54.82,71.7,58.65,83.58C230.24,172.62,229.79,173.87,228.79,174.55z" style="fill: rgb(253, 239, 220);"/></g><g id="__id211_szpcf5idmp"><path d="M172.59,41.53c0,12.24-4.38,23.74-12.96,28.94c-1.19,0.72-2.47,1.32-3.82,1.79l0,0l0.19,2.86l0.38,5.92 l-6.51,28.59l-27.83-30.76l1.66-12.2c-0.27-0.23-0.52-0.46-0.77-0.7c-5.7-5.58-8.29-15.22-8.29-23.36 c0-16.6,13.86-31.15,29.55-31.15S172.59,24.92,172.59,41.53z" style="fill: rgb(187, 88, 28);"/></g><g id="__id212_szpcf5idmp"><path d="M166.77,16.82c0,0,10.04,5.11,5.68,21.63c0,0-3.11-8.05-7.3-14.21c-2.27-3.34-5.63-5.78-9.49-6.91 c1.3,3.27,2.07,6.93-0.29,8.17c-2.56,1.35-4.82-2.62-6.31-6.4c-0.87,4.3-2.35,8.99-4.8,9.98c-3.73,1.5-1.57-9.24-0.5-13.83 c-0.2-0.01-6.6,9.55-10.36,9.73c-2.65,0.13-2.55-2.89-1.84-5.83c-4.26,3.25-13.72,13.13-15.91,27.3c0,0-3.32-4.49-6.05-8.47 c-2.4-3.5-2.65-8.07-0.62-11.81c2.3-4.25,6.19-10.07,11.69-13.83c0,0-5.94,1.15-6.44-1.4c-0.5-2.55,10.1-7.4,21.07-2.55 c0,0-7.91-5.68-6.96-7.53c0.9-1.73,8.89-0.78,15.24,4.79c-0.56-2.78-0.94-6.22,0.78-5.57c1.67,0.64,2.71,3.64,3.27,5.97 c1.86-0.45,4.37-0.86,6.64-0.59c4.26,0.51,20.6,7.4,20.09,9.83S166.77,16.82,166.77,16.82z M155.81,72.26 c-2.12,0.73-4.44,1.12-6.96,1.12c-7.29,0-17.9-1.33-24.21-5.97c1.59,7.1,9.99,12.48,18.97,12.48c5.24,0,9.04-1.84,12.39-4.77 L155.81,72.26z M137.94,41.96c0,2.08-1.68,3.76-3.76,3.76s-3.76-1.68-3.76-3.76c0-2.08,1.68-3.76,3.76-3.76 S137.94,39.88,137.94,41.96z M161.81,40.47c0,2.08-1.68,3.76-3.76,3.76s-3.76-1.68-3.76-3.76c0-2.08,1.68-3.76,3.76-3.76 S161.81,38.4,161.81,40.47z M126.3,34.55c-0.55,0-1.11-0.23-1.5-0.68c-0.73-0.83-0.65-2.09,0.18-2.82c6-5.29,14.01-3.69,14.35-3.62 c1.08,0.23,1.77,1.29,1.55,2.37c-0.23,1.08-1.29,1.77-2.36,1.55c-0.11-0.02-6.44-1.23-10.9,2.71 C127.25,34.39,126.77,34.55,126.3,34.55z M162.79,32.09c-0.37,0-0.74-0.1-1.07-0.31c-4.09-2.61-8.27-0.87-8.44-0.79 c-1.01,0.43-2.19-0.03-2.63-1.03c-0.44-1.01,0.01-2.18,1.01-2.63c0.25-0.11,6.26-2.72,12.21,1.08c0.93,0.59,1.2,1.83,0.61,2.76 C164.09,31.76,163.45,32.09,162.79,32.09z" style="fill: inherit;"/></g><g id="__id213_szpcf5idmp"><path d="M120.69,47.57c3.25,5.1,3.01,11.08-0.56,13.35c-3.56,2.27-9.09-0.02-12.34-5.13s-3.01-11.08,0.56-13.35 C111.91,40.18,117.44,42.47,120.69,47.57z" style="fill: rgb(187, 88, 28);"/></g><g id="__id214_szpcf5idmp"><path d="M108.69,237.19c-0.24,0-0.48-0.02-0.73-0.06c-2.45-0.4-4.12-2.71-3.72-5.16c0.15-0.91,14.52-91.56-8.21-121.35 c-3.91-5.12-8.57-7.91-14.27-8.52c-2.47-0.27-4.26-2.48-3.99-4.95c0.27-2.47,2.48-4.26,4.95-3.99c8.17,0.88,15.06,4.92,20.47,12.01 c25.06,32.86,10.56,124.37,9.93,128.25C112.77,235.62,110.86,237.19,108.69,237.19z M154.3,50.87c0.28,0,0.5-0.23,0.5-0.5 c-0.01-1.52-0.52-2.75-1.52-3.63c-2.21-1.96-6-1.54-6.16-1.52c-0.27,0.03-0.47,0.28-0.44,0.55c0.03,0.27,0.27,0.47,0.55,0.44 c0.03,0,3.52-0.38,5.39,1.28c0.78,0.69,1.17,1.66,1.18,2.89C153.8,50.65,154.02,50.87,154.3,50.87 C154.3,50.87,154.3,50.87,154.3,50.87z M160.44,54.66c0.18-0.21,0.16-0.52-0.04-0.7c-0.21-0.19-0.52-0.17-0.71,0.04 c-0.06,0.07-6.04,6.5-20.97,3.42c-0.26-0.05-0.54,0.12-0.59,0.39c-0.06,0.27,0.12,0.53,0.39,0.59c3.01,0.62,5.67,0.87,8,0.87 C156.22,59.27,160.24,54.89,160.44,54.66z M109.16,49.53c0.01-0.02,0.82-2.32,2.33-2.55c1.07-0.16,2.38,0.77,3.77,2.69 c0.16,0.22,0.47,0.27,0.7,0.11c0.22-0.16,0.27-0.48,0.11-0.7c-1.66-2.28-3.25-3.31-4.73-3.09c-2.12,0.32-3.08,3.1-3.12,3.22 c-0.09,0.26,0.05,0.55,0.31,0.63c0.05,0.02,0.11,0.03,0.16,0.03C108.89,49.87,109.09,49.74,109.16,49.53z" style="fill: inherit;"/></g><g id="__id215_szpcf5idmp"><path d="M99.66,301.01l-89.17-18.89c-7.52-1.59-12-8.91-10.02-16.35l14.79-55.33c1.99-7.43,9.69-12.17,17.21-10.58 l89.17,18.89c7.52,1.59,12,8.91,10.02,16.35l-14.79,55.33C114.88,297.87,107.17,302.6,99.66,301.01z" style="fill: rgb(235, 76, 48);"/></g><g id="__id216_szpcf5idmp"><path d="M102.36,243.63l-74.18-15.72c-5.01-1.06-10.16,2.1-11.48,7.06l-8.45,31.62c-0.64,2.41-0.3,4.88,0.97,6.96 c1.27,2.07,3.31,3.49,5.75,4.01l74.18,15.72c0.65,0.14,1.31,0.21,1.96,0.21c4.33,0,8.37-2.96,9.52-7.26l8.45-31.62 c0.64-2.41,0.3-4.88-0.97-6.96C106.84,245.57,104.8,244.15,102.36,243.63z M108.12,254.34l-8.45,31.62 c-1.19,4.45-5.81,7.29-10.31,6.34l-74.18-15.72c-2.16-0.46-3.98-1.72-5.1-3.55c-1.13-1.84-1.43-4.03-0.86-6.17l8.45-31.62 c1.03-3.87,4.66-6.52,8.55-6.52c0.58,0,1.17,0.06,1.76,0.18l74.18,15.72c2.16,0.46,3.98,1.72,5.1,3.55 C108.38,250,108.69,252.2,108.12,254.34z M122.2,236.63l-10.73,42.23c-0.06,0.23-0.26,0.38-0.48,0.38c-0.04,0-0.08,0-0.12-0.02 c-0.27-0.07-0.43-0.34-0.36-0.61l10.73-42.23c0.59-2.33,0.22-4.73-1.06-6.77c-1.27-2.04-3.27-3.42-5.63-3.91l-91.32-18.82 c-0.27-0.06-0.44-0.32-0.39-0.59s0.32-0.44,0.59-0.39l91.32,18.82c2.62,0.54,4.85,2.09,6.27,4.36 C122.44,231.35,122.86,234.03,122.2,236.63z" style="fill: inherit;"/></g><g id="__id217_szpcf5idmp"><path d="M112.47,225.8c-3.2,9.45-16.09-0.51-18.39,5.62c-2.3,6.13,9.36,27.62,8.22,31.32 c-1.1,3.55-5.72-0.34-5.91-0.42c0.08,0.1,0.73,0.86,1.4,1.88c1.29,1.99,1.31,4.62-1.37,4.84c-3.21,0.26-4.76-0.98-4.76-0.98 c-4.17,3.7-10.93-4.89-10.93-4.89s0.46,6.55-7.46-1.62c-7.91-8.17-5.61-30.96-5.61-30.96s-43.41-23.68-47.49-41.3 c-1.97-8.48,4.58-21.39,11.91-32.5c8.79,4.39,25.36,13.34,34.72,22.8c-2.52,1.87-4.25,2.94-4.25,2.94 c3.92,4.47,11.7,18.66,15.81,26.39c1.64,3.08,2.7,5.14,2.7,5.14s7.92-1.02,12.9,3.32C98.93,221.72,115.66,216.36,112.47,225.8z" style="fill: rgb(187, 88, 28);"/></g><g id="__id218_szpcf5idmp"><path d="M130.55,54.57l-6.45-2.63c-0.73-0.3-1.08-1.13-0.79-1.86l1.01-2.48c0.3-0.73,1.13-1.08,1.86-0.79l6.45,2.63 c0.73,0.3,1.08,1.13,0.79,1.86l-1.01,2.48C132.11,54.52,131.28,54.87,130.55,54.57z M170.11,54.69l-2.41-1.17 c-0.71-0.34-1.57-0.05-1.91,0.67l-3.03,6.28c-0.34,0.71-0.05,1.57,0.67,1.91l2.41,1.17c0.71,0.34,1.57,0.05,1.91-0.67l3.03-6.28 C171.12,55.89,170.82,55.03,170.11,54.69z" style="fill: rgb(253, 239, 220);"/></g><g id="__id219_szpcf5idmp"><path d="M99.06,263.94c-0.09,0.17-0.26,0.27-0.45,0.27c-0.08,0-0.15-0.02-0.23-0.05c-0.36-0.18-8.91-4.68-12.75-21.48 c-0.06-0.27,0.11-0.54,0.38-0.6c0.27-0.06,0.54,0.11,0.6,0.38c3.72,16.3,12.14,20.77,12.23,20.81 C99.09,263.39,99.19,263.69,99.06,263.94z M78.94,248.86c-0.1-0.26-0.38-0.39-0.64-0.3c-0.26,0.09-0.39,0.38-0.3,0.64 c4.42,11.99,13.26,19.17,13.35,19.24c0.09,0.07,0.2,0.11,0.31,0.11c0.15,0,0.29-0.06,0.39-0.19c0.17-0.21,0.14-0.53-0.08-0.7 C91.89,267.6,83.26,260.58,78.94,248.86z M73.5,250.66c-0.09-0.26-0.37-0.4-0.63-0.31c-0.26,0.09-0.4,0.37-0.31,0.63 c2.31,6.75,7.6,12.29,7.83,12.53c0.1,0.1,0.23,0.15,0.36,0.15c0.13,0,0.25-0.05,0.35-0.14c0.2-0.19,0.21-0.51,0.01-0.71 C81.04,262.76,75.73,257.2,73.5,250.66z M113.86,149.39c-0.17,0.2-14.97,17.71-28.79,30.33c-30.25-30.14-51.26-34.91-51.46-34.95 c-0.27-0.06-0.54,0.11-0.59,0.38c-0.06,0.27,0.11,0.54,0.38,0.59c0.21,0.04,20.94,4.78,50.93,34.65c-1.93,1.74-3.83,3.38-5.66,4.85 c-0.22,0.17-0.25,0.49-0.08,0.7c0.1,0.12,0.24,0.19,0.39,0.19c0.11,0,0.22-0.04,0.31-0.11c1.98-1.58,4.03-3.36,6.11-5.24 c0.01,0,0.01-0.01,0.02-0.01c0,0,0-0.01,0.01-0.01c13.97-12.69,29.03-30.51,29.2-30.71c0.18-0.21,0.15-0.53-0.06-0.7 C114.36,149.15,114.04,149.18,113.86,149.39z M144.12,105.92l-11.3,11.01c-0.18,0.18-0.42,0.28-0.67,0.26 c-0.25-0.01-0.48-0.11-0.65-0.3c-4.25-4.71-18.39-20.79-21.69-30.12c-0.09-0.26-0.38-0.4-0.64-0.3c-0.26,0.09-0.4,0.38-0.3,0.64 c3.36,9.5,17.61,25.72,21.89,30.46c0.35,0.39,0.83,0.61,1.36,0.63c0.02,0,0.04,0,0.06,0c0.5,0,0.98-0.19,1.34-0.55l11.3-11.01 c0.2-0.19,0.2-0.51,0.01-0.71C144.64,105.73,144.32,105.73,144.12,105.92z M157.55,241.42c-0.02,0.28,0.19,0.51,0.47,0.53 c0.01,0,0.02,0,0.03,0c0.26,0,0.48-0.2,0.5-0.47c3.55-52.72-7.21-127.86-7.32-128.61c-0.04-0.27-0.31-0.47-0.57-0.42 c-0.27,0.04-0.46,0.29-0.42,0.57C150.35,113.77,161.09,188.81,157.55,241.42z M166.97,111.42c2.8-9.96,3.89-23.71,3.9-23.85 c0.02-0.28-0.18-0.52-0.46-0.54c-0.25-0.02-0.52,0.18-0.54,0.46c-0.01,0.14-1.09,13.78-3.87,23.65c-0.09,0.31-0.31,0.54-0.62,0.63 c-0.31,0.09-0.64,0.02-0.88-0.2c-2.64-2.35-7.52-6.41-10.43-7.16c-0.27-0.07-0.54,0.09-0.61,0.36c-0.07,0.27,0.09,0.54,0.36,0.61 c1.98,0.51,5.63,3.04,10.02,6.94c0.36,0.32,0.81,0.49,1.28,0.49c0.18,0,0.37-0.03,0.54-0.08 C166.31,112.55,166.79,112.06,166.97,111.42z M189.83,153.36c0.34,2.75-1.22,5.33-3.79,6.27c-2.04,0.74-4.25,1-6.35,1 c-1.92,0-3.75-0.22-5.26-0.48c-2.54-0.44-4.48-2.48-4.82-5.06l-3.34-25.49c-0.02-0.13,0.02-0.27,0.1-0.37 c0.08-0.11,0.21-0.17,0.34-0.19l19.4-2.04c0.28-0.03,0.52,0.17,0.55,0.44L189.83,153.36z M188.84,153.48l-3.1-25.43l-18.41,1.94 l3.28,24.98c0.28,2.15,1.89,3.84,4,4.2c3.02,0.53,7.4,0.87,11.09-0.48C187.83,157.91,189.12,155.77,188.84,153.48z M227.73,163.76 c-0.16-0.23-0.47-0.28-0.7-0.12c-0.11,0.08-11.43,8.06-29.47,11.45l-5.83-43.32c-0.04-0.27-0.3-0.47-0.56-0.43 c-0.27,0.04-0.47,0.29-0.43,0.56l5.9,43.87c0,0,0,0,0,0v0l1.33,9.92c0.03,0.25,0.25,0.43,0.49,0.43c0.02,0,0.04,0,0.07,0 c0.27-0.04,0.47-0.29,0.43-0.56l-1.27-9.47c18.29-3.43,29.81-11.55,29.92-11.63C227.84,164.3,227.89,163.99,227.73,163.76z M54.1,175.24c-0.25-0.12-0.55-0.03-0.67,0.22c-0.12,0.25-0.03,0.55,0.22,0.67c0.06,0.03,5.73,2.93,8.5,6.69 c0.1,0.13,0.25,0.2,0.4,0.2c0.1,0,0.21-0.03,0.3-0.1c0.22-0.16,0.27-0.48,0.11-0.7C60.04,178.27,54.34,175.36,54.1,175.24z M163.65,287.66c-0.24-0.13-0.55-0.05-0.68,0.2l-14.06,25.53c-0.13,0.24-0.05,0.55,0.2,0.68c0.08,0.04,0.16,0.06,0.24,0.06 c0.18,0,0.35-0.09,0.44-0.26l14.06-25.53C163.98,288.1,163.89,287.79,163.65,287.66z" style="fill: inherit;"/></g></svg>