<svg xmlns="http://www.w3.org/2000/svg" viewBox="0 0 3692.63 1749.57"><defs><style>.cls-1{isolation:isolate;}.cls-2{fill:#eafcfc;}.cls-3{opacity:0.1;}.cls-16,.cls-20,.cls-23,.cls-24,.cls-3{mix-blend-mode:multiply;}.cls-4{fill:#86b1f2;}.cls-5{fill:#355389;}.cls-6{fill:#3c8f7c;}.cls-7{fill:#50bfa5;}.cls-8{fill:#367f6c;}.cls-9{fill:#29446d;}.cls-10{fill:#184655;}.cls-11{fill:#96d9c9;}.cls-12{fill:#327765;}.cls-13{fill:#c5e8f3;opacity:0.8;}.cls-14{fill:#fcf5eb;}.cls-15,.cls-16,.cls-20{fill:#fae0b2;}.cls-17,.cls-24{fill:#e25a44;}.cls-18,.cls-22,.cls-33{fill:#fff;}.cls-18,.cls-20{opacity:0.5;}.cls-18,.cls-22{mix-blend-mode:overlay;}.cls-19{fill:#accbf9;}.cls-21{fill:#f47458;}.cls-22{opacity:0.2;}.cls-23,.cls-30{fill:#f7cc7f;}.cls-23,.cls-24{opacity:0.3;}.cls-25{fill:#f4f4f4;}.cls-26{fill:#466eb6;}.cls-27{fill:#f7a491;}.cls-28{fill:#b75742;}.cls-29{fill:#f48c7f;}.cls-31{fill:#07345a;}.cls-32{fill:#9bc1f9;}</style></defs><g class="cls-1"><g id="Layer_2" data-name="Layer 2"><g id="Layer_1-2" data-name="Layer 1"><path class="cls-2" d="M2253.48,13.23S1376.39,121.63,1458,316.11s-436.48-69.08-643.24,1C667.6,367.06,726.44,519,655.23,580.26,491.94,720.65,325,543.86,117.14,649.93s31.24,1075.12,115.86,1075l3052.07,18,38.35,1s235-285,22.27-451.34-66.68-242.48-40.82-306.79c29.68-73.84,136-284.65-166.86-376.94-219.5-66.89-225.38-300.75-216.47-343.19,0,0,84.9-335.59-668.06-252.48Z"/><g class="cls-3"><path class="cls-4" d="M134.87,1188.94h96V981.48h92.35v92.38h76.42V861H524.78v194.63l37.43,1.25V860.64h43.67V777h26.2V720.84H734.4V777h26.2v83.63h43.67v106.3l20.15,1.26,6.05-315H965.23V820.8l47.41,1.24V560.18h16.22V504.92H1171.1v55.26h16.23V913.07h29.94V803h25v-53.8h36.18V592.17h52.41V749.23H1367V803h25V989.2h17.47l13.73-.19V773.33l369.33,3.53v54.25h31.19V783.85h77.69V468.65h71.14v44.94H2005v92.08h112.33v63.66h95.25V777L2363,773.5V989.18l13.73.19h17.47V803.21h25V749.4h36.2V592.34h52.42V749.4H2544v53.81h25v110h30V560.35h16.22V505.09h142.29v55.26h16.23V822.22l47.43-1.25V653.42h134.8l6.05,315,20.16-1.25V860.81h43.68V777.18H3052V721h102.35v56.16h26.21v83.63h43.69v196.24l33.1-1.1c-35.63,54-54.42,125,88.33,236.68,181.25,141.75,37.52,369.55-9,433.91l-1534.06-.08L484,1726.39l-251-1.48c-24.59,0-62.21-81.75-98.13-200.41Z"/><path class="cls-4" d="M3304.87,985.84c-7.82,19.44-26.61,39.95-43.17,63.71V861.17h82.89C3337.16,912.81,3315.81,958.63,3304.87,985.84Z"/></g><rect class="cls-5" x="677.79" y="1383.52" width="8.55" height="149.75" transform="translate(1364.12 2916.79) rotate(180)"/><polygon class="cls-6" points="679.82 1116.53 721.94 1418.8 637.71 1418.8 679.82 1116.53"/><polygon class="cls-7" points="719.26 1399.62 643.7 1375.8 644.84 1367.6 718.02 1390.67 719.26 1399.62"/><polygon class="cls-7" points="705.96 1304.13 655.88 1288.34 657.03 1280.14 704.71 1295.18 705.96 1304.13"/><rect class="cls-5" x="751.44" y="1394.17" width="7.26" height="80.44" transform="translate(1510.14 2868.78) rotate(180)"/><polygon class="cls-6" points="755.07 1238.13 778.76 1429.56 731.38 1429.56 755.07 1238.13"/><polygon class="cls-7" points="770.16 1360.13 736.39 1389.09 737.69 1378.6 769.12 1351.65 770.16 1360.13"/><polygon class="cls-7" points="764.97 1318.17 744.29 1325.24 745.26 1317.38 764.08 1310.95 764.97 1318.17"/><path class="cls-6" d="M1716.49,1462.07a63.63,63.63,0,0,1-.9-10.74c0-40.7,38.14-73.69,85.18-73.69s85.19,33,85.19,73.69a64.68,64.68,0,0,1-.9,10.74Z"/><path class="cls-7" d="M1620.08,1444a127.89,127.89,0,0,1-.9-15.15c0-57.39,38.14-103.91,85.18-103.91s85.19,46.52,85.19,103.91a127.89,127.89,0,0,1-.9,15.15Z"/><path class="cls-7" d="M1651.27,1507.64a64.8,64.8,0,0,0,.9-10.75c0-40.69-38.14-73.68-85.19-73.68s-85.18,33-85.18,73.68a64.8,64.8,0,0,0,.9,10.75Z"/><path class="cls-8" d="M1787.6,1507.64a101.09,101.09,0,0,0,1.14-15.15c0-57.39-48.34-103.92-108-103.92s-108,46.53-108,103.92a101.09,101.09,0,0,0,1.15,15.15Z"/><path class="cls-7" d="M1704.69,1388.57c29.81,0,56.43,14.76,74,37.91a122.92,122.92,0,0,1,28.31-3.27c52.93,0,95.83,33,95.83,73.68,0,3.65-28.17,80.32-28.83,83.83l-264.13-73.08a112.94,112.94,0,0,1-1-15.15C1608.86,1435.1,1651.77,1388.57,1704.69,1388.57Z"/><path class="cls-6" d="M2828.63,1309.34c135.77-11.6,396.57,95.28,603.6,198.51-7.59,56.72-30.88,110.81-54,152.87l-91.76-1.51,78.4.07c-46.29-1.19-790.72-91.2-1297.24-146.34C2341.63,1431.23,2616.54,1327.46,2828.63,1309.34Z"/><path class="cls-9" d="M1044.41,1103.86c-.08-2.5-3.54-4.45-5.38-2.23s-1.75.72-3.54,5.51a155.24,155.24,0,0,1-21.39,38.65c-16.78,22.26-33.39,33.49-52.25,44.61,7.77-17.47,13-36.12,13.64-54.93.24-6.85.11-14-2.83-20.25-.82-1.76-4-1.4-4.3.56-1.58,9.71.75,17-2.4,34.4-7.51,41.45-37.25,85.42-65.93,116.21,5.5-52.13,8.17-111.36-1.67-163.94-1.62-8.62-4.18-16.82-6.57-25.25-.56-2-3.38-1.13-3,.84.49,2.8,5.18,39,5.46,41.48,4.55,40,3.64,84.39.1,124.84a249.93,249.93,0,0,1-44.11-102c-2.06-10.85-2.61-22.06-5.49-32.71-.4-1.47-2.83-1.63-3.13,0-3,16,3,44.19,7.29,59.54a245.05,245.05,0,0,0,42,83.85c.75,1-30.79,244.24-29.94,247.32,1.43,5.19,10.5,8.84,11.9-.38.58-3.75,17.91-151.67,25.73-220.19,3-1.62,4.85-4.51,12.45-13,17.6-19.73,35-44.28,46.62-67.43,7-.4,57.36-24.86,82.35-80.56.72-1.61,4-9.15,4.43-10.83C1044.79,1106.53,1044.45,1105.28,1044.41,1103.86Z"/><path class="cls-10" d="M882.59,1025c.58-7.48.87-15.14.87-22.93,0-86.89-37-157.33-82.55-157.33s-82.55,70.44-82.55,157.33c0,7.79.3,15.45.87,22.93Z"/><path class="cls-6" d="M976,986.32q.86-15.84.87-32.35c0-122.54-37-221.88-82.55-221.88S811.79,831.43,811.79,954q0,16.49.87,32.35Z"/><path class="cls-6" d="M945.79,1122.28q-.85-11.23-.87-22.94c0-86.89,37-157.33,82.56-157.33s82.55,70.44,82.55,157.33q0,11.7-.87,22.94Z"/><path class="cls-10" d="M813.67,1122.28c-.72-10.56-1.1-21.36-1.1-32.34,0-122.54,46.85-221.88,104.65-221.88s104.65,99.34,104.65,221.88c0,11-.38,21.78-1.1,32.34Z"/><path class="cls-6" d="M894,868.06c-28.89,0-54.7,31.51-71.73,80.94a58.75,58.75,0,0,0-27.44-7c-51.28,0-92.86,70.44-92.86,157.33,0,7.8.34,15.45,1,22.94H985.91c.64-10.56,1-21.36,1-32.34C986.89,967.4,945.31,868.06,894,868.06Z"/><path class="cls-11" d="M796.18,1571.42H3417.46c-31.3,96.48-94,172.55-94,172.55l-38.35-1-2488.89-1.88Z"/><path class="cls-6" d="M1144.2,1354.93c212.1,18.12,487,121.89,761,203.6-506.52,55.15-1251,145.15-1297.24,146.34l78.39-.07-110.54,1.82-301.67-4.22C414.81,1607.89,932.09,1336.8,1144.2,1354.93Z"/><path class="cls-9" d="M227.77,1562.17c-12-31.23-23.76-62.48-32.29-95-26.27-100-19.93-172.87-18.95-207.91.13-4.63-7.3-5.9-7.94-1.12-2.24,16.45-2.73,33.16-2.84,49.75a628,628,0,0,0,5.11,84.12c-19.26,5-37.49-2.49-52.4-16-25.7-23.27-34.87-54.27-38.91-88.62-.41-3.51-.54-6.83-3.4-8.86-.63-1.8-3.26-2.36-3.92.33-4.07,4.19-2.1,12.59-1.47,18,8.48,73.15,52.95,108.61,88.75,108.3a51.45,51.45,0,0,0,13-1.41q3.87,26.25,10,52.07c7.73,32.76,18.59,64.38,30.53,95.7,40.82,107.1,53.85,161.81,65.45,192.81,1.75,6.23,11,3.62,9.36-2.69C287.2,1739.44,255.35,1633.92,227.77,1562.17Z"/><path class="cls-9" d="M391.36,1280.6c-.39-2.3-1.73-3.83-2.24-6-.68-2.84-5.33-3.13-5.81,0-.28,1.79-1.27,2.9-1.66,4.73-1.24,5.92,1.77,39.24-6.09,90.24-2.09,13.56-4.4,27-8.91,40-7.3,20.91-20.59,43.45-37.13,57.7a872.73,872.73,0,0,0-5.89-89.38q-3.22-26.66-8.14-53-2.4-12.84-5.19-25.59c-1.95-8.92-3.79-17.48-8.06-25.55-1.32-2.48-5-1.33-5.05,1.42,0,7.92,1.57,15.22,3.22,22.91s3.18,15.34,4.62,23c10.62,57.11,14.61,107.82,14.57,165-17.51-22-32.83-48.42-44.18-74.34a343.08,343.08,0,0,1-26.65-98.7q-1.59-14.27-1.92-28.66-.15-7.44-.31-14.88c0-2.55-1-10.25-5.32-8-4,2.07-3.58,6.7-3.91,10.74-.37,4.41-.4,8.81-.34,13.23q.15,12.71,1.34,25.36c5.69,61.1,28.74,121.49,63.8,171,5.34,7.55,10.86,15.63,17.34,22.21-1.49,97.79-16,221.32-16.27,231.19a39.38,39.38,0,0,0,.76,6.56c.66,4.44,6.49,3.41,7.68,0,2.26-6.45,2-9,5.38-44.63,6-63.61,12.7-209.34,12.68-215.25,20.81-15,35.55-38,45.18-62,5.11-12.75,8.11-25.86,10.36-39.44C392.87,1334.32,392.63,1288.15,391.36,1280.6Z"/><path class="cls-10" d="M248.29,1200.8a193.78,193.78,0,0,0,1.2-21.59c0-81.77-50.81-148.06-113.5-148.06s-113.5,66.29-113.5,148.06a193.78,193.78,0,0,0,1.2,21.59Z"/><path class="cls-6" d="M376.75,1164.41q1.19-14.91,1.2-30.44c0-115.33-50.82-208.82-113.5-208.82S150.94,1018.64,150.94,1134q0,15.51,1.2,30.44Z"/><path class="cls-10" d="M153.54,1292.37a304.12,304.12,0,0,1-1.52-30.44c0-115.33,64.42-208.82,143.88-208.82s143.89,93.49,143.89,208.82a304.12,304.12,0,0,1-1.52,30.44Z"/><path class="cls-6" d="M264,1053.11c-39.72,0-75.2,29.66-98.62,76.18a111.28,111.28,0,0,0-37.72-6.58C57.16,1122.71,0,1189,0,1270.78a172.38,172.38,0,0,0,1.35,21.59h389q1.34-14.91,1.35-30.44C391.69,1146.6,334.53,1053.11,264,1053.11Z"/><path class="cls-12" d="M439.71,1480.43l-18.52-23.67c-13.4-17.8-10.67-42.46,6.1-55.06h0c42.24-31.78,103.84-21.16,137.59,23.72l24.68,32.8c10.81,14.38,27.83,21.11,43.73,19,14.44-2,29.21,4.73,38.39,16.93l13,17.3a78.85,78.85,0,0,1,14,64.48,47.9,47.9,0,0,0,8.76,39.11l18.42,24.49c20.37,27.07,16.21,64.56-9.27,83.73l-14.55,10.93c-25.48,19.17-62.65,12.77-83-14.31h0c-21.54-37.34-46.53-49.45-66.71-51.94a112.4,112.4,0,0,1-75.85-44.08l-2.6-3.46a111.62,111.62,0,0,1-20.18-89.74C456.56,1517,454.38,1499.94,439.71,1480.43Z"/><path class="cls-7" d="M850.9,1740.42s-95.51-126.87-155.62-146.33-13.13,47.58-13.13,47.58-96.95-106.35-136.08-95.84c-35.87,9.63,0,81.91,0,81.91s-40.4-40-89.39-40,37.86,149.85,37.86,149.85Z"/><path class="cls-11" d="M546.07,1739.71S468.36,1544.1,387.5,1564.29c-65.53,16.37-27.05,90.7-31,86.7s-18.62-29.1-75.48-29.1,1,70.75,1,70.75-104.71-28.1-114.2,11.63c-7.87,33,36.16,35.44,36.16,35.44Z"/><path class="cls-13" d="M2209,297.37a60,60,0,0,1,73.61-44.61,88.34,88.34,0,0,1,106.26-47,108.84,108.84,0,0,1,195.56,19,74.67,74.67,0,0,1,111,65.3c0,2.45-.13,4.87-.36,7.25Z"/><path class="cls-13" d="M1693.25,528.12a24.73,24.73,0,0,0-30.34-18.39,36.41,36.41,0,0,0-43.79-19.36,44.86,44.86,0,0,0-80.6,7.84,30.78,30.78,0,0,0-45.74,26.92,29.63,29.63,0,0,0,.15,3Z"/><path class="cls-13" d="M2406.52,566.86a32.23,32.23,0,0,0-39.53-24,47.42,47.42,0,0,0-57.06-25.23,58.45,58.45,0,0,0-105,10.22A40.11,40.11,0,0,0,2145.31,563c0,1.32.07,2.61.19,3.9Z"/><rect class="cls-14" x="2063.43" y="1069.4" width="41.83" height="517.96" transform="translate(4168.69 2656.75) rotate(180)"/><rect class="cls-15" x="1812.77" y="862.03" width="293.92" height="169.89"/><rect class="cls-16" x="2072.04" y="862.03" width="34.64" height="169.89"/><rect class="cls-10" x="1799.32" y="853.84" width="313.8" height="16.37"/><rect class="cls-4" x="1812.41" y="904.93" width="89.68" height="67.08" transform="translate(2795.73 -918.78) rotate(90)"/><rect class="cls-4" x="1896.31" y="904.93" width="89.68" height="67.08" transform="translate(2879.62 -1002.67) rotate(90)"/><rect class="cls-4" x="1978.48" y="904.93" width="89.68" height="67.08" transform="translate(2961.79 -1084.85) rotate(90)"/><rect class="cls-15" x="2610.74" y="862.03" width="293.92" height="169.89" transform="translate(5515.4 1893.94) rotate(180)"/><rect class="cls-16" x="2610.74" y="862.03" width="34.64" height="169.89" transform="translate(5256.13 1893.94) rotate(180)"/><rect class="cls-15" x="1735.87" y="1034.43" width="371.48" height="566.5"/><rect class="cls-4" x="1788.78" y="1042.75" width="89.68" height="142.79" transform="translate(2947.77 -719.48) rotate(90)"/><rect class="cls-4" x="1788.79" y="1146.8" width="89.68" height="142.79" transform="translate(3051.82 -615.43) rotate(90)"/><rect class="cls-4" x="1788.78" y="1250.85" width="89.68" height="142.79" transform="translate(3155.87 -511.38) rotate(90)"/><rect class="cls-4" x="1788.78" y="1354.89" width="89.68" height="142.79" transform="translate(3259.92 -407.33) rotate(90)"/><rect class="cls-4" x="1788.78" y="1458.94" width="89.68" height="142.79" transform="translate(3363.97 -303.28) rotate(90)"/><rect class="cls-4" x="1947.11" y="1042.75" width="89.68" height="142.79" transform="translate(3106.1 -877.81) rotate(90)"/><rect class="cls-4" x="1947.12" y="1146.8" width="89.68" height="142.79" transform="translate(3210.15 -773.76) rotate(90)"/><rect class="cls-4" x="1947.11" y="1250.85" width="89.68" height="142.79" transform="translate(3314.2 -669.71) rotate(90)"/><rect class="cls-4" x="1947.11" y="1354.89" width="89.68" height="142.79" transform="translate(3418.25 -565.66) rotate(90)"/><rect class="cls-4" x="1947.11" y="1458.94" width="89.68" height="142.79" transform="translate(3522.3 -461.61) rotate(90)"/><rect class="cls-15" x="2610.74" y="1034.43" width="371.48" height="566.5" transform="translate(5592.96 2635.36) rotate(180)"/><rect class="cls-10" x="2610.74" y="1587.42" width="375.88" height="13.51" transform="translate(5597.37 3188.34) rotate(180)"/><rect class="cls-10" x="1732.62" y="1587.42" width="375.88" height="13.51" transform="translate(3841.12 3188.34) rotate(180)"/><rect class="cls-16" x="2610.74" y="1034.43" width="34.64" height="566.5" transform="translate(5256.13 2635.36) rotate(180)"/><rect class="cls-10" x="2604.6" y="853.84" width="313.5" height="16.37" transform="translate(5522.71 1724.05) rotate(180)"/><rect class="cls-15" x="2105.39" y="910.19" width="505.36" height="117.64" transform="translate(4716.13 1938.03) rotate(180)"/><rect class="cls-15" x="2105.39" y="1044.35" width="505.36" height="556.57" transform="translate(4716.13 2645.28) rotate(180)"/><rect class="cls-4" x="2839.62" y="1042.75" width="89.68" height="142.79" transform="translate(3998.61 -1770.32) rotate(90)"/><rect class="cls-4" x="2839.62" y="1146.8" width="89.68" height="142.79" transform="translate(4102.66 -1666.27) rotate(90)"/><rect class="cls-4" x="2839.62" y="1250.85" width="89.68" height="142.79" transform="translate(4206.71 -1562.22) rotate(90)"/><rect class="cls-4" x="2839.62" y="1354.89" width="89.68" height="142.79" transform="translate(4310.76 -1458.17) rotate(90)"/><rect class="cls-4" x="2839.62" y="1458.94" width="89.68" height="142.79" transform="translate(4414.81 -1354.12) rotate(90)"/><rect class="cls-4" x="2681.29" y="1042.75" width="89.68" height="142.8" transform="translate(3840.28 -1611.99) rotate(90)"/><rect class="cls-4" x="2815.33" y="904.93" width="89.68" height="67.08" transform="translate(3798.64 -1921.7) rotate(90)"/><rect class="cls-4" x="2731.44" y="904.93" width="89.68" height="67.08" transform="translate(3714.75 -1837.81) rotate(90)"/><rect class="cls-4" x="2649.26" y="904.93" width="89.68" height="67.08" transform="translate(3632.57 -1755.63) rotate(90)"/><rect class="cls-4" x="2681.29" y="1146.8" width="89.68" height="142.8" transform="translate(3944.33 -1507.94) rotate(90)"/><rect class="cls-4" x="2681.29" y="1250.85" width="89.68" height="142.8" transform="translate(4048.38 -1403.89) rotate(90)"/><rect class="cls-4" x="2681.29" y="1354.89" width="89.68" height="142.8" transform="translate(4152.43 -1299.84) rotate(90)"/><rect class="cls-4" x="2681.29" y="1458.94" width="89.68" height="142.8" transform="translate(4256.48 -1195.79) rotate(90)"/><rect class="cls-17" x="2282.06" y="1461.34" width="145" height="140.9" transform="translate(4709.12 3063.58) rotate(180)"/><rect class="cls-10" x="2824.78" y="980.08" width="70.78" height="4.66" transform="translate(5720.34 1964.81) rotate(180)"/><rect class="cls-10" x="2740.89" y="980.08" width="70.78" height="4.66" transform="translate(5552.56 1964.81) rotate(180)"/><rect class="cls-10" x="2658.71" y="980.08" width="70.78" height="4.66" transform="translate(5388.21 1964.81) rotate(180)"/><rect class="cls-10" x="1988.79" y="980.08" width="70.78" height="4.66" transform="translate(4048.36 1964.81) rotate(180)"/><rect class="cls-10" x="1904.9" y="980.08" width="70.78" height="4.66" transform="translate(3880.57 1964.81) rotate(180)"/><rect class="cls-10" x="1822.72" y="980.08" width="70.78" height="4.66" transform="translate(3716.22 1964.81) rotate(180)"/><polygon class="cls-18" points="2887.43 1570.53 2969.45 1570.53 2874.54 1069.31 2792.52 1069.31 2887.43 1570.53"/><rect class="cls-15" x="2955.86" y="1069.31" width="26.36" height="509.96" transform="translate(5938.08 2648.57) rotate(180)"/><polygon class="cls-18" points="2781.97 1570.53 2827.64 1570.53 2732.73 1069.31 2687.06 1069.31 2781.97 1570.53"/><rect class="cls-10" x="2652.97" y="1154.33" width="146.32" height="4.66" transform="translate(5452.27 2313.32) rotate(180)"/><rect class="cls-10" x="2811.3" y="1258.38" width="146.32" height="4.66" transform="translate(5768.93 2521.41) rotate(180)"/><rect class="cls-10" x="2652.97" y="1258.38" width="146.32" height="4.66" transform="translate(5452.27 2521.41) rotate(180)"/><rect class="cls-10" x="2811.3" y="1362.43" width="146.32" height="4.66" transform="translate(5768.93 2729.51) rotate(180)"/><rect class="cls-10" x="2652.97" y="1362.43" width="146.32" height="4.66" transform="translate(5452.27 2729.51) rotate(180)"/><rect class="cls-10" x="2811.3" y="1466.48" width="146.32" height="4.66" transform="translate(5768.93 2937.61) rotate(180)"/><rect class="cls-10" x="2652.97" y="1466.48" width="146.32" height="4.66" transform="translate(5452.27 2937.61) rotate(180)"/><rect class="cls-10" x="2811.3" y="1570.52" width="146.32" height="4.66" transform="translate(5768.93 3145.71) rotate(180)"/><rect class="cls-10" x="2652.97" y="1570.52" width="146.32" height="4.66" transform="translate(5452.27 3145.71) rotate(180)"/><rect class="cls-10" x="2811.3" y="1154.33" width="146.32" height="4.66" transform="translate(5768.93 2313.32) rotate(180)"/><rect class="cls-15" x="2797.53" y="1068.73" width="15.54" height="510.54" transform="translate(5610.6 2647.99) rotate(180)"/><rect class="cls-15" x="2652.97" y="1471.13" width="308.17" height="14.37" transform="translate(5614.11 2956.63) rotate(180)"/><rect class="cls-15" x="2652.97" y="1367.08" width="308.17" height="14.37" transform="translate(5614.11 2748.54) rotate(180)"/><rect class="cls-15" x="2652.97" y="1263.04" width="308.17" height="14.37" transform="translate(5614.11 2540.44) rotate(180)"/><rect class="cls-15" x="2652.97" y="1158.99" width="308.17" height="14.37" transform="translate(5614.11 2332.34) rotate(180)"/><polygon class="cls-18" points="2019.16 1570.53 2101.18 1570.53 2006.27 1069.31 1924.25 1069.31 2019.16 1570.53"/><polygon class="cls-18" points="1889.43 1570.53 1935.1 1570.53 1840.19 1069.31 1794.52 1069.31 1889.43 1570.53"/><rect class="cls-15" x="1904.99" y="1068.73" width="15.54" height="510.54" transform="translate(3825.51 2647.99) rotate(180)"/><rect class="cls-15" x="1760.43" y="1471.13" width="308.17" height="14.37" transform="translate(3829.03 2956.63) rotate(180)"/><rect class="cls-15" x="1760.43" y="1367.08" width="308.17" height="14.37" transform="translate(3829.03 2748.54) rotate(180)"/><rect class="cls-15" x="1760.43" y="1263.04" width="308.17" height="14.37" transform="translate(3829.03 2540.44) rotate(180)"/><rect class="cls-15" x="1760.43" y="1158.99" width="308.17" height="14.37" transform="translate(3829.03 2332.34) rotate(180)"/><polygon class="cls-18" points="2861.99 980.08 2883.13 980.08 2858.52 893.63 2837.38 893.63 2861.99 980.08"/><polygon class="cls-18" points="2774.71 980.08 2789.51 980.08 2764.9 893.63 2750.1 893.63 2774.71 980.08"/><polygon class="cls-18" points="2711.89 980.08 2723.67 980.08 2699.06 893.63 2687.28 893.63 2711.89 980.08"/><polygon class="cls-18" points="2027.67 980.08 2048.81 980.08 2024.2 893.63 2003.06 893.63 2027.67 980.08"/><polygon class="cls-18" points="1940.39 980.08 1955.19 980.08 1930.58 893.63 1915.78 893.63 1940.39 980.08"/><polygon class="cls-18" points="1877.57 980.08 1889.35 980.08 1864.74 893.63 1852.96 893.63 1877.57 980.08"/><rect class="cls-10" x="1760.73" y="1154.33" width="146.32" height="4.66" transform="translate(3667.77 2313.32) rotate(180)"/><rect class="cls-10" x="1919.06" y="1258.38" width="146.32" height="4.66" transform="translate(3984.43 2521.41) rotate(180)"/><rect class="cls-10" x="1760.73" y="1258.38" width="146.32" height="4.66" transform="translate(3667.77 2521.41) rotate(180)"/><rect class="cls-10" x="1919.06" y="1362.43" width="146.32" height="4.66" transform="translate(3984.43 2729.51) rotate(180)"/><rect class="cls-10" x="1760.73" y="1362.43" width="146.32" height="4.66" transform="translate(3667.77 2729.51) rotate(180)"/><rect class="cls-10" x="1919.06" y="1466.48" width="146.32" height="4.66" transform="translate(3984.43 2937.61) rotate(180)"/><rect class="cls-10" x="1760.73" y="1466.48" width="146.32" height="4.66" transform="translate(3667.77 2937.61) rotate(180)"/><rect class="cls-10" x="1919.06" y="1570.52" width="146.32" height="4.66" transform="translate(3984.43 3145.71) rotate(180)"/><rect class="cls-10" x="1760.73" y="1570.52" width="146.32" height="4.66" transform="translate(3667.77 3145.71) rotate(180)"/><rect class="cls-10" x="1919.06" y="1154.33" width="146.32" height="4.66" transform="translate(3984.43 2313.32) rotate(180)"/><rect class="cls-19" x="2315.84" y="1071.04" width="89.68" height="142.79" transform="translate(3503.12 -1218.24) rotate(90)"/><rect class="cls-19" x="2474.17" y="1071.04" width="89.68" height="142.79" transform="translate(3661.45 -1376.57) rotate(90)"/><rect class="cls-10" x="2287.78" y="1182.62" width="146.32" height="4.66" transform="translate(4721.88 2369.9) rotate(180)"/><rect class="cls-19" x="2158.21" y="1071.04" width="89.68" height="142.79" transform="translate(3345.49 -1060.61) rotate(90)"/><rect class="cls-10" x="2130.15" y="1182.62" width="146.32" height="4.66" transform="translate(4406.62 2369.9) rotate(180)"/><rect class="cls-10" x="2446.11" y="1182.62" width="146.32" height="4.66" transform="translate(5038.54 2369.9) rotate(180)"/><rect class="cls-19" x="2315.84" y="1192.3" width="89.68" height="142.79" transform="translate(3624.38 -1096.99) rotate(90)"/><rect class="cls-19" x="2474.17" y="1192.3" width="89.68" height="142.79" transform="translate(3782.71 -1255.32) rotate(90)"/><rect class="cls-10" x="2287.78" y="1303.88" width="146.32" height="4.66" transform="translate(4721.88 2612.41) rotate(180)"/><rect class="cls-19" x="2158.21" y="1192.3" width="89.68" height="142.79" transform="translate(3466.74 -939.35) rotate(90)"/><rect class="cls-10" x="2130.15" y="1303.88" width="146.32" height="4.66" transform="translate(4406.62 2612.41) rotate(180)"/><rect class="cls-10" x="2446.11" y="1303.88" width="146.32" height="4.66" transform="translate(5038.54 2612.41) rotate(180)"/><rect class="cls-20" x="2105.39" y="910.19" width="505.36" height="39.2" transform="translate(4716.13 1859.58) rotate(180)"/><rect class="cls-10" x="2094.21" y="902.74" width="527.71" height="16.37" transform="translate(4716.13 1821.85) rotate(180)"/><rect class="cls-21" x="2353.98" y="1461.34" width="1.16" height="140.9" transform="translate(4709.12 3063.58) rotate(180)"/><rect class="cls-21" x="2135.69" y="1461.34" width="26.2" height="139.59" transform="translate(4297.59 3062.27) rotate(180)"/><rect class="cls-21" x="2554.56" y="1461.34" width="26.2" height="139.59" transform="translate(5135.31 3062.27) rotate(180)"/><rect class="cls-4" x="2339.61" y="1493.71" width="101.72" height="51.91" transform="translate(3910.13 -870.8) rotate(90)"/><rect class="cls-4" x="2267.8" y="1493.71" width="101.72" height="51.91" transform="translate(3838.33 -799) rotate(90)"/><polygon class="cls-22" points="2389.13 1570.53 2411.78 1570.53 2393.88 1468.81 2371.23 1468.81 2389.13 1570.53"/><polygon class="cls-22" points="2316.29 1570.53 2338.94 1570.53 2321.04 1468.81 2298.39 1468.81 2316.29 1570.53"/><rect class="cls-15" x="2063.43" y="1337.67" width="37.7" height="245.55" transform="translate(4164.56 2920.9) rotate(180)"/><rect class="cls-16" x="2070.64" y="1042.55" width="34.64" height="555.4"/><rect class="cls-23" x="2545.92" y="962.75" width="32.81" height="12.57" transform="translate(5124.65 1938.07) rotate(180)"/><rect class="cls-23" x="2571.8" y="981.91" width="32.81" height="12.57" transform="translate(5176.4 1976.39) rotate(180)"/><rect class="cls-23" x="2550.57" y="1002.71" width="33.58" height="10.64" transform="translate(5134.71 2016.07) rotate(180)"/><rect class="cls-23" x="2529.69" y="982.98" width="32.62" height="10.64" transform="translate(5092 1976.6) rotate(180)"/><rect class="cls-23" x="2329.75" y="1003.78" width="26.53" height="9.5" transform="translate(4686.02 2017.06) rotate(180)"/><rect class="cls-23" x="2312.19" y="988.29" width="26.53" height="9.5" transform="translate(4650.9 1986.08) rotate(180)"/><rect class="cls-23" x="2466.08" y="1494.72" width="26.53" height="9.5" transform="translate(4958.68 2998.94) rotate(180)"/><rect class="cls-23" x="2448.52" y="1479.22" width="26.53" height="9.5" transform="translate(4923.57 2967.95) rotate(180)"/><rect class="cls-23" x="2183.35" y="1490.07" width="26.53" height="9.5" transform="translate(4393.22 2989.64) rotate(180)"/><rect class="cls-23" x="2170.18" y="1507.37" width="26.53" height="9.5" transform="translate(4366.88 3024.24) rotate(180)"/><rect class="cls-23" x="2180.3" y="967.14" width="32.81" height="12.57"/><rect class="cls-23" x="2105.42" y="1000.71" width="10.68" height="12.57"/><rect class="cls-23" x="2105.16" y="980.57" width="22.82" height="12.57"/><rect class="cls-23" x="2164.03" y="983.66" width="32.81" height="12.57"/><rect class="cls-23" x="2407.21" y="987.85" width="32.81" height="12.57"/><rect class="cls-23" x="2426.83" y="969" width="32.81" height="12.57"/><rect class="cls-23" x="2174.88" y="1002.71" width="33.58" height="10.64"/><rect class="cls-23" x="2230.91" y="1534.51" width="32.81" height="12.57"/><rect class="cls-23" x="2214.64" y="1551.03" width="32.81" height="12.57"/><rect class="cls-23" x="2225.49" y="1570.08" width="33.58" height="10.64"/><rect class="cls-23" x="2479.56" y="1537.09" width="32.81" height="12.57" transform="translate(4991.93 3086.75) rotate(180)"/><rect class="cls-23" x="2495.83" y="1553.61" width="32.81" height="12.57" transform="translate(5024.46 3119.8) rotate(180)"/><rect class="cls-23" x="2484.21" y="1572.66" width="33.58" height="10.64" transform="translate(5001.99 3155.96) rotate(180)"/><rect class="cls-23" x="2202.92" y="985.82" width="32.62" height="10.64"/><rect class="cls-17" x="2135.26" y="1316.76" width="445.6" height="95.99" transform="translate(4716.13 2729.51) rotate(180)"/><rect class="cls-24" x="2135.26" y="1372.19" width="445.6" height="40.56" transform="translate(4716.13 2784.94) rotate(180)"/><path class="cls-25" d="M2265.43,1392.81a11.86,11.86,0,0,1-3.76-2.8,5.94,5.94,0,0,1-1.23-1.78l2.18-4.32a6.79,6.79,0,0,0,1.12,1.37,11.42,11.42,0,0,0,3,2.28,9.28,9.28,0,0,0,4.45,1,5.05,5.05,0,0,0,4.18-1.86,7.6,7.6,0,0,0,1.49-4.92,6.85,6.85,0,0,0-.8-3.39,8.58,8.58,0,0,0-2-2.46c-.78-.67-1.88-1.53-3.29-2.57a32.7,32.7,0,0,1-4.53-3.58,14.35,14.35,0,0,1-3-4.47,16.22,16.22,0,0,1-1.26-6.78,17.68,17.68,0,0,1,1.55-7.67,11.71,11.71,0,0,1,4.3-5,11.41,11.41,0,0,1,6.24-1.75,12.39,12.39,0,0,1,4.33.75,16.22,16.22,0,0,1,3.44,1.67,9.28,9.28,0,0,1,1.41,1l-.92,5.06c-.19-.14-.66-.48-1.41-1a16.53,16.53,0,0,0-2.83-1.53,8.87,8.87,0,0,0-3.5-.74,4.31,4.31,0,0,0-3.5,1.6,6.77,6.77,0,0,0-1.32,4.43,7.56,7.56,0,0,0,1.55,5,24.34,24.34,0,0,0,4.76,4.1,41,41,0,0,1,4.59,3.65,13.7,13.7,0,0,1,3,4.43,17.36,17.36,0,0,1,1.23,7,16.33,16.33,0,0,1-1.75,7.82,12.37,12.37,0,0,1-4.73,5,12.83,12.83,0,0,1-6.65,1.75A13.62,13.62,0,0,1,2265.43,1392.81Z"/><path class="cls-25" d="M2293.34,1387.52q-4.41-6.6-4.41-18.07a40.27,40.27,0,0,1,2-13.33,19.26,19.26,0,0,1,5.84-8.87,14,14,0,0,1,9.12-3.13,16.23,16.23,0,0,1,5.19.86,28.14,28.14,0,0,1,4.41,1.86,13.71,13.71,0,0,1,1.86,1.08l-.8,5.44a21.72,21.72,0,0,0-1.95-1.15,28.3,28.3,0,0,0-3.69-1.68,11.33,11.33,0,0,0-4.05-.82,7.34,7.34,0,0,0-5.21,1.86q-2,1.86-3,6.11a51.44,51.44,0,0,0-1,11.4q0,10.5,2.35,15a7.71,7.71,0,0,0,7.28,4.47,8,8,0,0,0,4.85-1.52,14.76,14.76,0,0,0,3.38-3.36,10,10,0,0,0,1.29-2l2.52,3.57a10.52,10.52,0,0,1-1.52,2.68,15.75,15.75,0,0,1-4.44,4.29,12.56,12.56,0,0,1-7.16,2Q2297.76,1394.11,2293.34,1387.52Z"/><path class="cls-25" d="M2324.3,1393.29v-48.42h7.91V1366h12.9v-21.15H2353v48.42h-7.91v-22h-12.9v22Z"/><path class="cls-25" d="M2363.88,1387.44q-4.38-6.66-4.38-18.29t4.38-18.32a14.06,14.06,0,0,1,12.47-6.71,14.24,14.24,0,0,1,12.59,6.74q4.44,6.75,4.44,18.29t-4.44,18.26a14.25,14.25,0,0,1-12.59,6.7A14.06,14.06,0,0,1,2363.88,1387.44Zm18.81-3.27q1.92-4.67,1.92-15t-2-15q-1.95-4.7-6.31-4.69c-2.86,0-4.94,1.56-6.22,4.69s-1.92,8.12-1.92,15,.63,11.91,1.89,15,3.35,4.65,6.25,4.65S2381.4,1387.27,2382.69,1384.17Z"/><path class="cls-25" d="M2401.89,1387.44q-4.38-6.66-4.39-18.29t4.39-18.32a14,14,0,0,1,12.47-6.71,14.22,14.22,0,0,1,12.58,6.74q4.44,6.75,4.44,18.29t-4.44,18.26a14.23,14.23,0,0,1-12.58,6.7A14.05,14.05,0,0,1,2401.89,1387.44Zm18.8-3.27q1.92-4.67,1.92-15t-2-15q-1.95-4.7-6.3-4.69t-6.22,4.69q-1.92,4.69-1.92,15t1.89,15q1.89,4.65,6.25,4.65T2420.69,1384.17Z"/><path class="cls-25" d="M2437.86,1393.29v-48.42h7.91v43.06h14.45v5.36Z"/><polygon class="cls-18" points="2551.63 1182.98 2578.48 1182.98 2533.82 1097.6 2506.96 1097.6 2551.63 1182.98"/><polygon class="cls-18" points="2511.03 1182.98 2537.89 1182.98 2493.22 1097.6 2466.36 1097.6 2511.03 1182.98"/><polygon class="cls-18" points="2393.55 1182.98 2420.4 1182.98 2375.74 1097.6 2348.88 1097.6 2393.55 1182.98"/><polygon class="cls-18" points="2352.95 1182.98 2379.8 1182.98 2335.14 1097.6 2308.28 1097.6 2352.95 1182.98"/><polygon class="cls-18" points="2235.47 1182.98 2262.32 1182.98 2217.66 1097.6 2190.8 1097.6 2235.47 1182.98"/><polygon class="cls-18" points="2194.87 1182.98 2221.72 1182.98 2177.06 1097.6 2150.2 1097.6 2194.87 1182.98"/><polygon class="cls-18" points="2551.63 1304.3 2578.48 1304.3 2533.82 1218.92 2506.96 1218.92 2551.63 1304.3"/><polygon class="cls-18" points="2511.03 1304.3 2537.89 1304.3 2493.22 1218.92 2466.36 1218.92 2511.03 1304.3"/><polygon class="cls-18" points="2393.55 1304.3 2420.4 1304.3 2375.74 1218.92 2348.88 1218.92 2393.55 1304.3"/><polygon class="cls-18" points="2352.95 1304.3 2379.8 1304.3 2335.14 1218.92 2308.28 1218.92 2352.95 1304.3"/><polygon class="cls-18" points="2235.47 1304.3 2262.32 1304.3 2217.66 1218.92 2190.8 1218.92 2235.47 1304.3"/><polygon class="cls-18" points="2194.87 1304.3 2221.72 1304.3 2177.06 1218.92 2150.2 1218.92 2194.87 1304.3"/><rect class="cls-10" x="2125.32" y="1420.82" width="465.49" height="40.52" transform="translate(4716.13 2882.16) rotate(180)"/><rect class="cls-10" x="1721.61" y="1025.54" width="527.71" height="18.87"/><rect class="cls-10" x="2180.3" y="1025.54" width="816.18" height="18.87" transform="translate(5176.78 2069.95) rotate(180)"/><path class="cls-9" d="M3422.9,1520.94c14.22-37,28.14-74,38.25-112.47,31.1-118.4,23.59-204.7,22.43-246.2-.15-5.48,8.65-7,9.41-1.32,2.65,19.47,3.23,39.26,3.36,58.91a744.54,744.54,0,0,1-6,99.61c22.81,5.94,44.39-3,62-18.94,30.43-27.55,41.29-64.26,46.08-104.94.48-4.16.64-8.09,4-10.49.75-2.13,3.87-2.79,4.64.39,4.82,5,2.49,14.91,1.75,21.32-10.05,86.62-62.71,128.61-105.1,128.25-4.65,0-10.31-.27-15.36-1.68q-4.59,31.08-11.79,61.66c-9.16,38.8-22,76.24-36.15,113.33-48.35,126.82-63.77,191.61-77.51,228.32-2.08,7.38-13,4.29-11.08-3.18C3352.53,1730.85,3390.25,1605.9,3422.9,1520.94Z"/><path class="cls-9" d="M3229.19,1187.51c.46-2.73,2-4.54,2.66-7.09.8-3.37,6.3-3.71,6.87,0,.33,2.12,1.51,3.42,2,5.59,1.47,7-2.09,46.47,7.21,106.87,2.47,16,5.21,32,10.55,47.33,8.64,24.77,24.39,51.47,44,68.34a1031.76,1031.76,0,0,1,7-105.85q3.81-31.56,9.63-62.77,2.83-15.2,6.15-30.3c2.31-10.56,4.49-20.7,9.55-30.26,1.55-2.94,6-1.57,6,1.68,0,9.38-1.85,18-3.81,27.13s-3.77,18.17-5.47,27.3c-12.58,67.62-17.31,127.68-17.26,195.39,20.74-26.09,38.88-57.34,52.32-88A405.55,405.55,0,0,0,3398,1226q1.91-16.9,2.28-34,.2-8.8.37-17.61c.06-3,1.21-12.14,6.3-9.47,4.69,2.46,4.24,7.94,4.64,12.73.42,5.22.46,10.42.4,15.66q-.2,15-1.6,30c-6.73,72.36-34,143.87-75.54,202.47-6.32,8.93-12.86,18.5-20.54,26.3,1.77,115.79,19,262.07,19.27,273.76a46.38,46.38,0,0,1-.9,7.77c-.79,5.25-7.69,4-9.1,0-2.67-7.63-2.39-10.6-6.37-52.85-7.09-75.33-15-247.9-15-254.89-24.65-17.71-42.1-45-53.5-73.4-6.05-15.09-9.6-30.63-12.27-46.71C3227.4,1251.12,3227.69,1196.45,3229.19,1187.51Z"/><path class="cls-10" d="M3398.6,1093a230.86,230.86,0,0,1-1.42-25.56c0-96.84,60.18-175.34,134.41-175.34S3666,970.61,3666,1067.45a230.86,230.86,0,0,1-1.42,25.56Z"/><path class="cls-6" d="M3246.49,1049.92c-.93-11.77-1.42-23.81-1.42-36.05,0-136.57,60.18-247.27,134.41-247.27s134.41,110.7,134.41,247.27c0,12.24-.49,24.28-1.43,36.05Z"/><path class="cls-10" d="M3510.81,1201.44a358.38,358.38,0,0,0,1.8-36c0-136.56-76.28-247.27-170.38-247.27s-170.39,110.71-170.39,247.27a358.38,358.38,0,0,0,1.8,36Z"/><path class="cls-6" d="M3380,918.12c47,0,89,35.12,116.77,90.2a132.05,132.05,0,0,1,44.68-7.78c83.5,0,151.19,78.5,151.19,175.34a204.66,204.66,0,0,1-1.6,25.56H3230.39q-1.57-17.65-1.59-36C3228.8,1028.83,3296.49,918.12,3380,918.12Z"/><path class="cls-12" d="M3292.34,1543.14l14-17.91c10.14-13.47,8.07-32.13-4.61-41.67h0c-32-24-78.58-16-104.12,18L3179,1526.34a35.76,35.76,0,0,1-33.09,14.34c-10.93-1.48-22.11,3.58-29.05,12.81l-9.85,13.09a59.72,59.72,0,0,0-10.61,48.8,36.21,36.21,0,0,1-6.63,29.59l-13.94,18.53c-15.41,20.49-12.26,48.85,7,63.36l11,8.27c19.28,14.51,47.41,9.66,62.82-10.83h0c16.29-28.25,35.2-37.42,50.47-39.3a85,85,0,0,0,57.4-33.36l2-2.62a84.48,84.48,0,0,0,15.27-67.9C3279.59,1570.83,3281.23,1557.9,3292.34,1543.14Z"/><path class="cls-7" d="M3015,1739.88s72.28-96,117.76-110.73,9.93,36,9.93,36,73.37-80.48,103-72.52c27.14,7.29,0,62,0,62s30.57-30.29,67.64-30.29-28.65,113.4-28.65,113.4Z"/><path class="cls-6" d="M3245.63,1739.34s50.09-141.27,111.28-126c49.58,12.39,13.64,88,16.67,85s29.61-48.15,72.64-48.15-13.2,60.9-13.2,60.9,91.67-28.63,98.85,1.44c6,25-27.36,26.82-27.36,26.82Z"/><path class="cls-26" d="M1508.29,1361.29s23.19,114,12.62,124.53-69.08,32.15-82.37,27.22-40.61-135.12-33-148S1502.14,1343.15,1508.29,1361.29Z"/><path class="cls-27" d="M1498.89,1699.62s-1.52,13.09-1.52,15.31v2.22l1.09,2.26.43.89-7.83,11s-31.43.46-32.13.46,4.21-7.59,4.21-7.59,10.39-7.83,12.26-13.32-1.58-16.94-1.58-16.94Z"/><path class="cls-27" d="M1650.38,1621.33s11.19,6.94,12.93,8.32l1.74,1.38,1.09,2.26.44.89,13.47.7,20.34-24.87c.43-.55-5.73.82-5.73.82s-12.56,1.7-18-.25-16.51-12.83-16.51-12.83Z"/><path class="cls-28" d="M1548.66,1498.55l120.57,102.7-18.58,26.29s-118.32-74.36-124.8-75.23-16.67,1.41-17.89,6.14-5,144.82-5,144.82h-32.19L1454,1524.52Z"/><path class="cls-27" d="M1375,1352.08c-8.92-5.85-29.88-28.33-37-36-.07-.9-.75-6.1-6.46-12.71-4-4.67-7.08-15.32-9.73-12.3s3.92,11.48.92,11.53-17.92-16.7-20.31-14,12.74,17.63,10,17.68-15-15-18.36-11.17,16.11,16.41,14.29,18.49-13.9-6.15-16.63-3,17,10.45,15.46,10.48-13-.28-13.07,1.92c-.09,2.48,28.86,6.34,32.4,10.64h0c7.57,12,21,34,34.67,43.7,16.68,11.81,55.24,36.86,55.24,36.86l19.15-24.74S1385.53,1359,1375,1352.08Z"/><path class="cls-29" d="M1322.69,1307.94a11.81,11.81,0,0,0-1.16,4.65,11.58,11.58,0,0,0,3.77,9.36C1323.58,1318.76,1321.68,1315.2,1322.69,1307.94Z"/><path class="cls-27" d="M1551.71,1325c7.08-8,21.43-35.16,26.28-44.41-.17-.89-.87-6.08,2.91-14,2.67-5.56,2.83-16.64,6.17-14.41s-.78,12.1,2.14,11.37,12.92-20.81,16-18.79-7.69,20.35-5.08,19.7,10.52-18.43,14.8-15.59-11.26,20-9,21.58,11.81-9.57,15.26-7.27-13.72,14.54-12.19,14.15,12.47-3.66,13.12-1.57c.74,2.38-26.19,13.68-28.49,18.75h0c-4.15,13.61-11.39,38.36-22,51.24-13,15.77-43.68,50-43.68,50L1503,1377S1543.31,1334.47,1551.71,1325Z"/><path class="cls-29" d="M1590.6,1268.74a11.89,11.89,0,0,1,2.34,4.19,11.57,11.57,0,0,1-1.19,10C1592.58,1279.41,1593.48,1275.48,1590.6,1268.74Z"/><path class="cls-30" d="M1531.48,1343.28l22.51,29.36-27.94,41.57s2.63,30.89,6.66,40.53,27.34,49.25,27.34,49.25-56.61,34.69-112,29.61c0,0-15.59-80.26-20-88s-46.61-45.92-46.61-45.92l20.5-33.12,35.4,19.63s64.71-10.46,67.83-13.58S1531.48,1343.28,1531.48,1343.28Z"/><path class="cls-21" d="M1458.46,1283.23s21.85-11.57,29.33,7.59c0,0,19.63-2,16.24,18.34,0,0,19.74,9.93,7.24,35.52,0,0,5.49,24.07-22.67,25.59,0,0-4.2,8.53-17,6.54s-16.13-5.37-16.13-5.37-22.78,6.66-29.67-13.91c0,0-15.66-3.73-5.14-23.83,0,0-13.67-26,10.4-33.88C1431,1299.82,1433.81,1273.18,1458.46,1283.23Z"/><path class="cls-27" d="M1449.64,1339.67c1.77,4.95.5,9.94-2.85,11.14s-7.5-1.84-9.28-6.8-.5-9.94,2.85-11.14S1447.86,1334.71,1449.64,1339.67Z"/><path class="cls-27" d="M1508.57,1327.51c.25,5.25-2.43,9.65-6,9.82s-6.63-4-6.88-9.21,2.43-9.66,6-9.83S1508.32,1322.25,1508.57,1327.51Z"/><path class="cls-27" d="M1483.58,1362.32c0,.35,2.84,12.55,4.34,19a5.17,5.17,0,0,1-2.9,5.89c-6,2.74-17.82,6.57-26-.83a3.37,3.37,0,0,1-1.11-2.65l1-29.12Z"/><path class="cls-29" d="M1485.1,1369.15c-6.35,3.21-14.35,3.27-23.32-2-1.13-.67-2.2-1.38-3.21-2.12l.36-10.44,24.65,7.71C1483.58,1362.49,1484.25,1365.43,1485.1,1369.15Z"/><path class="cls-27" d="M1466.1,1295.1a31.32,31.32,0,0,0-17.08,13.31c-6.32,10.47-9.81,40.73,12.76,54s39-7.27,38.58-26.66S1491.31,1291.55,1466.1,1295.1Z"/><path class="cls-26" d="M1504.61,1739.32c4.8-.6-3.49-17.25-6.15-19.91l-35.32,4.75s-17,7.89-21,11.92c-.95,1-1.08,2.63,3.07,3.24C1458.5,1741.31,1494,1740.67,1504.61,1739.32Z"/><path class="cls-26" d="M1678.26,1650.75c-4.14,2.49-11.69-13.72-12.12-17.46l28.52-22.46s22-6.31,26.45-1.87C1725.14,1613,1687.67,1645.1,1678.26,1650.75Z"/><path class="cls-26" d="M1439.08,1501.17c22.77-22.77,18.26-92.74,14.09-122.3l-9.77,1.38c3.51,25,8.34,94.3-11.3,113.94Z"/><path class="cls-26" d="M1536.26,1462l1.1-8.87c-17.7-50-33.91-82.35-34.07-82.67l-8.81,4.45C1494.64,1375.18,1513.31,1419.29,1536.26,1462Z"/><path class="cls-15" d="M1098.91,1369.8s-38.84-5.15-53,2.18-21.92,94.6-21.92,94.6l12.58,3.82s-1.79,60.43,7.82,64.63,77.18-8.83,92.59-24.23-13.6-144.22-13.6-144.22Z"/><path class="cls-27" d="M1175.59,1308.17c4.52-10.15,10.21-41.69,12.12-52.41-.44-.83-2.78-5.77-1.5-14.79.9-6.37-2.43-17.43,1.59-16.27s3,12.27,5.7,10.63,6.29-24.75,9.94-23.7-1.23,22.65,1.15,21.18,4.65-21.64,9.8-20.16-4.87,23.48-2.1,24.27,8.72-13.23,12.87-12-9.05,18.77-7.65,17.9,11.23-7.57,12.54-5.69c1.49,2.12-21.72,21.84-22.4,27.61h0c.16,14.83.76,41.71-5.76,57.87-8,19.76-27.64,63.48-27.64,63.48l-30.75-10.9S1170.22,1320.22,1175.59,1308.17Z"/><path class="cls-29" d="M1196.51,1240a12.38,12.38,0,0,1,3.64,3.42,12,12,0,0,1,2,10.34C1201.84,1250,1201.49,1245.8,1196.51,1240Z"/><path class="cls-27" d="M978.71,1377.64s1.35-5-2-13.29c-2.16-5.32-1.88-15.66-4.95-13.76s.23,11.33-2.35,10.5-10.72-20.06-13.51-18.34,6.08,19.37,3.77,18.62S951,1343.65,947,1346.08s9.27,19.27,7.16,20.58-10.17-9.53-13.34-7.57,11.68,14.26,10.33,13.82-11-4.06-11.65-2.13c-.76,2.17,19.22,10.91,21.08,15.76s32.48,54.53,42.64,55.65,59.11-24.85,63.5-34.54,1.41-20.78-5.09-22.88-52.34,24-54.38,23.29S978.71,1377.64,978.71,1377.64Z"/><path class="cls-29" d="M969.82,1364.57a12.35,12.35,0,0,0-2.46,4.36,12,12,0,0,0,1.19,10.45C967.71,1375.69,966.79,1371.59,969.82,1364.57Z"/><path class="cls-27" d="M1020.28,1609.34c-5.26-1.83-14.77-11.45-14.77-11.45-12.21,9.43-37.51,38.86-37.51,38.86s4.73,3.26,8.76,1.43S999.37,1628,1008,1631c2.25.78,27.43,9.32,49.76,15.08,2.75-8-4.8-24-1.08-31.53C1044.77,1610.7,1022,1609.94,1020.28,1609.34Z"/><path class="cls-31" d="M1014.19,1605.62s-21.89,22.38-24,26.35c-1.74,3.24-28.91,14.35-30.28,10.19s32.33-48.63,37.65-50.26S1014.19,1605.62,1014.19,1605.62Z"/><path class="cls-27" d="M1156,1674.39c-1.83,5.1-11.7,14.38-11.7,14.38,9.91,11.67,40.7,35.74,40.7,35.74s3.33-4.59,1.38-8.46-11.79-28-8.78-36.32c.79-2.18,6.54-18.39,11.94-27.55-8.33-2.57-16.5-6.51-24.33-10C1161.34,1653.7,1156.63,1672.71,1156,1674.39Z"/><path class="cls-28" d="M1152.58,1500.89s57,56.26,62.79,67.12c4.34,8.11-22,91.49-22,91.49s-24.72-1.87-35.06-11.85c0,0,13.08-58.18,10.36-60.8s-67.82-40.39-67.82-40.39L1109,1512Z"/><path class="cls-21" d="M1140,1499.41s-14.87,34.54-14.87,48c0,10.31,4.56,93-17.23,100.94-12.36,4.52-70.56-2.15-70.56-2.15l5.27-37.42s27.72,4.11,30.15,1.76-22.19-64.67-17.06-86,47.85-34.42,47.85-34.42Z"/><path class="cls-32" d="M1158.48,1338.94s6.94,2.08,28.33,31.14l-34.34,54.27-20.91-50.43Z"/><path class="cls-32" d="M1108.43,1374.42s19-2.14,25.78-4.62,51.62,145.34,36,148.7c-32.72,7-117.71,25.75-117.71,25.75s-1.48-8.44,3.1-23c7.93-25.26,12.43-83.07,12.43-93.26,0-6-31,14.76-31,14.76l-13-47s39.59-15.91,53.46-18.77C1081.31,1376.21,1108.43,1374.42,1108.43,1374.42Z"/><path class="cls-15" d="M1167.47,1469.31c-5-24.13-47.38-96.53-47.75-97.21l8.7-4.66c1.53,2.85,35.84,64,41.11,89.57Z"/><path class="cls-31" d="M1152.62,1679.82s24.7,22.54,29.17,24.71c3.64,1.77,12.07,28.44,7.44,29.91s-50.48-31.58-52.37-37.1S1152.62,1679.82,1152.62,1679.82Z"/><path class="cls-15" d="M1055.21,1501l-4.44-7.07c.37-.24,37.88-24.18,42.11-54.73,4.28-30.87-17.49-63.3-17.71-63.63l6.9-4.7c1,1.43,23.8,35.38,19.08,69.48C1096.39,1474.78,1056.89,1500,1055.21,1501Z"/><path class="cls-10" d="M1109,1275.59s15-5.44,24.69,9.75,4.45,13.75,9.16,21.35,17,6,17,17.81-5.51,13.62-5.51,13.62,5,9.16-.52,18.59-19.21,17.55-30.69,16.24c0,0-17.24,9.45-34.52,5s-11.26-4.47-18.34-4.47-26.19-9.69-23-23.83c0,0-11.65-13.84-.35-25.14s13.44-22.79,20-38S1101.1,1271.92,1109,1275.59Z"/><path class="cls-27" d="M1119,1356.45s-.63,20.86,1.33,22.82,4.69,5.2,1.81,10.18-15.39,1.8-21.21-1a27.48,27.48,0,0,1-9.21-7.82l2.92-33Z"/><path class="cls-28" d="M1110.66,1365.09a29.25,29.25,0,0,1-16.45-12.92l.41-4.62,24.36,8.9s-.16,5.09-.07,10.47A28,28,0,0,1,1110.66,1365.09Z"/><path class="cls-27" d="M1090.33,1324s-.59-12.26-8.12-9.88-1.79,20.88,4.45,20.28S1090.33,1324,1090.33,1324Z"/><path class="cls-27" d="M1114,1283.9s11.79-.26,17.81,8.91,12.57,35.35,2.62,53.43-22.65,13.61-27.89,11.78-15.59-5.89-20.82-22.78S1084.28,1280.37,1114,1283.9Z"/><rect class="cls-10" x="105.63" y="1738.38" width="3452.33" height="11.2" transform="translate(3663.6 3487.95) rotate(180)"/><path class="cls-33" d="M1130.45,1336.77h-18.8s.43,7.14,8.7,7.38C1130.42,1344.44,1130.45,1336.77,1130.45,1336.77Z"/><path class="cls-33" d="M1486.79,1345.83l-18.71,1.73s1.09,7.07,9.34,6.54C1487.48,1353.47,1486.79,1345.83,1486.79,1345.83Z"/></g></g></g></svg>