<svg xmlns="http://www.w3.org/2000/svg" xmlns:xlink="http://www.w3.org/1999/xlink" preserveAspectRatio="xMidYMid meet" version="1.0" viewBox="-5.3 -2.9 234.3 456.8" zoomAndPan="magnify" style="fill: rgb(0, 0, 0);" original_string_length="16208"><g id="__id177_szpcf5idmp"><path d="M111.66,398.38c0,0,11.32,17.7,3.11,25.36c-6.3,5.88-10.52,8.86-18.35,16.52s-33.87,13.62-45.28,3.91 c-11.4-9.7,34.87-45.36,34.87-45.36L111.66,398.38z M157.05,393.29c0,0-11.32,17.7-3.11,25.36c6.3,5.88,10.52,8.86,18.35,16.52 s33.87,13.62,45.28,3.91c11.4-9.7-34.87-45.36-34.87-45.36L157.05,393.29z" style="fill: rgb(255, 255, 255);"/></g><g id="__id178_szpcf5idmp"><path d="M87.67,416.28c-0.31,0-0.62-0.15-0.82-0.42c-4.59-6.47-13.11-5.66-13.2-5.65c-0.55,0.06-1.04-0.34-1.1-0.89 s0.34-1.04,0.89-1.1c0.4-0.04,9.78-0.93,15.04,6.49c0.32,0.45,0.21,1.07-0.24,1.39C88.07,416.22,87.87,416.28,87.67,416.28z M81.18,422.2c0.45-0.32,0.56-0.94,0.24-1.39c-5.26-7.41-14.64-6.53-15.04-6.49c-0.55,0.06-0.95,0.55-0.89,1.1 c0.06,0.55,0.54,0.93,1.1,0.89c0.09-0.01,8.61-0.82,13.2,5.65c0.2,0.28,0.5,0.42,0.82,0.42C80.81,422.39,81.01,422.33,81.18,422.2z M74.95,428.67c0.45-0.32,0.56-0.94,0.24-1.39c-5.26-7.41-14.64-6.53-15.04-6.49c-0.55,0.06-0.95,0.55-0.89,1.1 c0.06,0.55,0.54,0.96,1.1,0.89c0.09,0,8.61-0.82,13.2,5.65c0.2,0.28,0.5,0.42,0.82,0.42C74.58,428.85,74.78,428.79,74.95,428.67z M181.87,410.76c4.57-6.44,13.12-5.66,13.2-5.65c0.54,0.04,1.04-0.34,1.1-0.89s-0.34-1.04-0.89-1.1c-0.4-0.04-9.78-0.93-15.04,6.49 c-0.32,0.45-0.21,1.07,0.24,1.39c0.17,0.13,0.38,0.18,0.58,0.18C181.37,411.18,181.67,411.04,181.87,410.76z M188.93,416.87 c4.57-6.45,13.12-5.66,13.2-5.65c0.54,0.04,1.04-0.34,1.1-0.89s-0.34-1.04-0.89-1.1c-0.4-0.04-9.78-0.93-15.04,6.48 c-0.32,0.45-0.21,1.07,0.24,1.39c0.17,0.13,0.38,0.18,0.58,0.18C188.43,417.29,188.73,417.15,188.93,416.87z M195.16,423.34 c4.57-6.45,13.12-5.66,13.2-5.65c0.54,0.05,1.04-0.34,1.1-0.89s-0.34-1.04-0.89-1.1c-0.4-0.04-9.78-0.93-15.04,6.49 c-0.32,0.45-0.21,1.07,0.24,1.39c0.18,0.13,0.38,0.18,0.58,0.18C194.66,423.76,194.96,423.62,195.16,423.34z M153.02,225.01 c1.3,5.16,26.02,104.08,29.13,166.56c0.07,1.37-0.59,2.67-1.74,3.42c-3.55,2.33-12.04,6.47-23.44,2.75 c-1.22-0.4-2.15-1.38-2.51-2.61c-3.89-13.31-27.42-92.98-42.53-125.34c-0.35-0.75-1.48-0.5-1.47,0.33 c0.24,18.12,1.41,101.77,2.85,126.53c0.1,1.63-0.83,3.14-2.33,3.79c-4.79,2.07-15.69,5.53-25.88-0.24c-1-0.56-1.69-1.54-1.9-2.67 c-3.08-16.3-27.33-145.5-25.98-167.74c1.44-23.68,86.11-31.83,95.67-5.21C152.95,224.73,152.99,224.87,153.02,225.01z" style="fill: inherit;"/></g><g id="__id179_szpcf5idmp"><path d="M70.36,180.35c0,0,9.25,57.87-9.52,48.17s-15.78-12.77-13.74-14.47c2.04-1.7,6.81,2.53,6.81,2.53 c-3.74-11.09-2.55-25.22-2.55-25.22L70.36,180.35z" style="fill: rgb(187, 88, 28);"/></g><g id="__id180_szpcf5idmp"><path d="M195.1,138.14c-0.51-25.02-22.98-18.64-22.98-18.64c-20.43-52.09-71.36-44.87-71.36-44.87 c-38.43,1.85-62.43,29.55-62.43,29.55s-43.66,46.72-37.79,63.7c5.87,16.98,43.4,22.6,43.4,22.6l3.99,5.59 c1.44,2.01,4.19,2.55,6.28,1.22c1.05-0.67,2.13-1.42,3.21-2.2c-0.07,0.78-0.14,1.55-0.2,2.29c-1.28,15.32,1.53,18.89,1.53,18.89 l-1.53,13.53c46.72,19.66,95.49-4.09,95.74-5c0.26-0.91-5.03-14.4-5.03-14.4c5.94-4.34,3.5-30.89,3.5-30.89 C184.88,199.67,195.61,163.16,195.1,138.14z M43.95,152.18l14.2-5.28l4.19,9.03c0,0-0.65,4.41-1.5,10.67 C52.92,156.86,43.95,152.18,43.95,152.18z" style="fill: rgb(116, 150, 223);"/></g><g id="__id181_szpcf5idmp"><path d="M121.34,89.12c-0.17,7.37-5.51,21.48-10.22,32.56c-3.77,8.86-7.13,15.78-7.13,15.78 c-1.62-1.52-5.39-7.08-9.54-13.63c-7.21-11.37-15.59-25.73-15.94-27.14c-0.03-0.16-0.04-0.31-0.03-0.47 C80.63,69.71,121.99,61.79,121.34,89.12z" style="fill: rgb(255, 255, 255);"/></g><g id="__id182_szpcf5idmp"><path d="M111.12,121.68c-3.77,8.86-7.13,15.78-7.13,15.78c-1.62-1.52-5.39-7.08-9.54-13.63l3.11-16.62 c0.05-0.31,0.01-0.62-0.13-0.9l-5.13-10c-0.28-0.55-0.16-1.24,0.3-1.66l7.14-6.68c0.49-0.45,1.22-0.5,1.76-0.13l8.42,5.82 c0.53,0.37,0.74,1.05,0.51,1.66l-3.91,10.22c-0.12,0.29-0.13,0.61-0.04,0.91C107.07,108.39,109.42,116.08,111.12,121.68z" style="fill: rgb(255, 185, 42);"/></g><g id="__id183_szpcf5idmp"><path d="M98.75,70.26c23.97-8.91,24.95,18.21,24.58,27.71c-0.06,1.63-1.65,2.78-3.26,2.35l-18.39-4.88 c-0.58-0.18-1.21-0.15-1.78,0.07l-17.93,6.98c-1.63,0.63-3.45-0.4-3.66-2.1c-3.84-30.87,15.61-30.34,19.24-29.98 C97.97,70.47,98.37,70.4,98.75,70.26z" style="fill: rgb(255, 255, 255);"/></g><g id="__id184_szpcf5idmp"><path d="M112.13,63.07c-0.06,0.05-0.11,0.09-0.17,0.13c0.23,0.47,0.43,0.98,0.57,1.5l2.23,8.24 c0.8,2.94-0.1,6.08-2.33,8.16l-10.92,10.18l-12.16-7.05c-2.78-1.61-4.37-4.7-4.06-7.9l0.89-9.23c0.03-0.29,0.08-0.58,0.14-0.87 c-0.03-0.01-0.06-0.02-0.1-0.04c-0.39-0.16-0.77-0.32-1.15-0.49c-7.77-3.42-13.14-11.8-14.07-21.27 c-1.5-15.12,9.7-29.05,23.14-30.38c13.44-1.33,26.81,9.77,28.3,24.89c0.75,7.56-0.88,15.35-5.84,20.1 C115.07,60.53,113.6,61.88,112.13,63.07z" style="fill: rgb(187, 88, 28);"/></g><g id="__id185_szpcf5idmp"><path d="M74.67,32.1l-2.04,14.38c0,0-14.47-4.34-6.81-24.68S82.67,6.57,82.67,6.57c4.26-9.45,11.91-8.09,33.28,0.17 s8.61,35.94,4.09,38.4s-5.96-21.38-5.96-21.38c-20.51-0.26-24-6.8-24-6.8c0.6,4,9.45,12.17,4.17,11.57S83.78,16.78,83.78,16.78 C81.84,23.93,74.67,32.1,74.67,32.1z M99.57,68.82c-4.59,0.45-9.21-0.91-13.34-2.62c2.25,4.57,6.96,7.71,12.4,7.71 c6.61,0,12.14-4.65,13.5-10.84C108.25,66.25,104.44,68.33,99.57,68.82z M106.88,32.95c-1.97,0-3.57,1.6-3.57,3.57 c0,1.97,1.6,3.57,3.57,3.57c1.97,0,3.57-1.6,3.57-3.57C110.46,34.55,108.86,32.95,106.88,32.95z M84.56,37.16 c-1.97,0-3.57,1.6-3.57,3.57s1.6,3.57,3.57,3.57s3.57-1.6,3.57-3.57S86.54,37.16,84.56,37.16z" style="fill: inherit;"/></g><g id="__id186_szpcf5idmp"><path d="M129.7,46.34c-1.55,5.09-6.08,8.23-10.13,7s-6.08-6.35-4.53-11.45c1.55-5.09,6.08-8.23,10.13-7 S131.25,41.25,129.7,46.34z M66.97,57.57c2.95,4.43,8.19,6.13,11.71,3.79c3.52-2.34,3.99-7.83,1.05-12.27 c-2.95-4.43-8.19-6.13-11.71-3.79S64.03,53.14,66.97,57.57z" style="fill: rgb(187, 88, 28);"/></g><g id="__id187_szpcf5idmp"><path d="M110.46,27.05c-0.21,0-0.42-0.06-0.59-0.2c-5.47-4.05-10.98-1.06-11.21-0.93c-0.48,0.27-1.09,0.1-1.36-0.38 c-0.27-0.48-0.1-1.09,0.38-1.36c0.28-0.16,6.85-3.77,13.38,1.07c0.44,0.33,0.54,0.96,0.21,1.4 C111.07,26.92,110.76,27.05,110.46,27.05z M77.75,33.94c1.94-5.68,8.19-5.7,8.48-5.71c0.52,0.01,1-0.44,1.01-0.99 c0.01-0.55-0.44-1.01-0.99-1.01c-0.06,0-7.98-0.01-10.39,7.06c-0.18,0.52,0.1,1.09,0.62,1.27c0.11,0.04,0.22,0.05,0.32,0.05 C77.21,34.61,77.6,34.35,77.75,33.94z M120.39,40.84c1.01-1.75,2.08-2.65,3.18-2.68c1.72-0.03,3.1,2.06,3.11,2.08 c0.15,0.23,0.46,0.3,0.69,0.15c0.23-0.15,0.3-0.46,0.15-0.69c-0.07-0.11-1.71-2.57-3.97-2.54c-1.48,0.03-2.83,1.11-4.03,3.18 c-0.14,0.24-0.05,0.55,0.18,0.68c0.08,0.04,0.16,0.07,0.25,0.07C120.13,41.09,120.3,41,120.39,40.84z M66.78,51.77 c-0.07,0-0.14-0.01-0.21-0.04c-0.25-0.11-0.36-0.41-0.25-0.66c0.05-0.11,1.29-2.81,3.56-3.09c1.46-0.18,2.96,0.68,4.45,2.56 c0.17,0.22,0.13,0.53-0.08,0.7c-0.22,0.17-0.53,0.13-0.7-0.08c-1.25-1.59-2.44-2.32-3.54-2.19c-1.71,0.21-2.77,2.48-2.78,2.51 C67.15,51.66,66.97,51.77,66.78,51.77z M94.08,55.8c-1.54,0-3.2-0.2-4.98-0.67c-0.27-0.07-0.43-0.35-0.35-0.61 c0.07-0.27,0.35-0.42,0.61-0.35c10.12,2.7,16.38-4.04,16.44-4.11c0.18-0.2,0.5-0.22,0.71-0.04c0.2,0.19,0.22,0.5,0.04,0.71 C106.48,50.79,101.84,55.8,94.08,55.8z M93.39,47.75c-0.25,0-0.46-0.18-0.5-0.43c-0.28-2.05,0.08-3.47,1.08-4.22 c1.63-1.23,4.27-0.1,4.38-0.05c0.25,0.11,0.37,0.41,0.26,0.66c-0.11,0.25-0.4,0.37-0.66,0.26c-0.61-0.27-2.41-0.8-3.38-0.07 c-0.69,0.52-0.92,1.63-0.69,3.29c0.04,0.27-0.15,0.53-0.43,0.56C93.44,47.74,93.42,47.75,93.39,47.75z" style="fill: inherit;"/></g><g id="__id188_szpcf5idmp"><path d="M191.59,134.78c-2.39,3.37-8.53,3.13-13.71-0.55c-5.18-3.68-7.44-9.39-5.04-12.76 c2.39-3.37,8.53-3.13,13.71,0.55C191.73,125.69,193.99,131.4,191.59,134.78z" style="fill: rgb(255, 255, 255);"/></g><g id="__id189_szpcf5idmp"><path d="M190.11,114.71c-0.02,0.38-0.08,0.77-0.15,1.14l0,0l-1.42,13.86c0,0-6.85,5.7-12.7-4v-4.76 c-1.31-0.79-2.3-1.75-2.7-2.61c-1.54-3.28,1.57-4.71,1.57-4.71s-2.96-0.18-4.3-3.1c-1.34-2.92,2.27-4.4,2.27-4.4 s-3.22-0.49-4.06-2.89c-0.83-2.4,1.9-4.36,1.9-4.36s-3.11,1.45-3.64-2.91c-0.35-2.9,1.91-5.77,6.85-6.5 c-2.29-6.33-1.65-13.5,2.93-13.73c3.74-0.19,4.9,8.98,5.26,14.22c0.41,0.09,0.81,0.17,1.24,0.28 C190.6,92.12,190.47,108.16,190.11,114.71z" style="fill: rgb(187, 88, 28);"/></g><g id="__id190_szpcf5idmp"><path d="M53.66,197.49c0.15,0.23,0.08,0.54-0.15,0.69c-0.08,0.05-0.18,0.08-0.27,0.08c-0.17,0-0.33-0.08-0.42-0.23l-4.78-7.53 c-0.15-0.23-0.08-0.54,0.15-0.69c0.23-0.15,0.54-0.08,0.69,0.15L53.66,197.49z M102.52,219.16c-25.21,0.93-41.37-2.82-43.41-3.32 c-4.7-9.95,2.15-48.77,2.22-49.16c0.05-0.27-0.13-0.53-0.4-0.58c-0.28-0.05-0.53,0.13-0.58,0.4c-0.17,0.95-2.52,14.27-3.48,27.23 l-3.89-6.82c-0.14-0.24-0.44-0.32-0.68-0.19s-0.32,0.44-0.19,0.68l4.63,8.12c0,0,0,0,0,0c-0.55,8.65-0.41,16.86,1.51,20.81 l-1.52,13.4c-0.03,0.27,0.17,0.52,0.44,0.55c0.02,0,0.04,0,0.06,0c0.25,0,0.47-0.19,0.5-0.44l1.47-12.97 c2.75,0.65,15.57,3.42,35.35,3.42c2.56,0,5.23-0.05,8.01-0.15c0.28-0.01,0.49-0.24,0.48-0.52 C103.03,219.37,102.8,219.14,102.52,219.16z M100.32,143.46c-28.13-37.24-33-59.22-33.05-59.44c-0.06-0.27-0.32-0.44-0.59-0.39 c-0.27,0.06-0.44,0.32-0.39,0.59c0.05,0.22,4.94,22.34,33.14,59.71l4.53,93.66c0.01,0.27,0.23,0.48,0.5,0.48c0.01,0,0.02,0,0.02,0 c0.28-0.01,0.49-0.25,0.48-0.52l-4.54-93.81C100.41,143.63,100.38,143.54,100.32,143.46z M44.22,151.77 c-0.28-0.19-6.95-4.46-16.31,2.31c-0.22,0.16-0.27,0.47-0.11,0.7c0.1,0.14,0.25,0.21,0.41,0.21c0.1,0,0.2-0.03,0.29-0.09 c8.78-6.34,14.92-2.45,15.18-2.29c0.23,0.15,0.54,0.09,0.69-0.14S44.45,151.92,44.22,151.77z M80.17,103.19 c0.05,0,0.11-0.01,0.16-0.03l21.38-7.19l18.24,4.84c0.27,0.07,0.54-0.09,0.61-0.36c0.07-0.27-0.09-0.54-0.36-0.61l-18.39-4.88 c-0.09-0.02-0.19-0.02-0.29,0.01l-21.52,7.24c-0.26,0.09-0.4,0.37-0.31,0.63C79.77,103.06,79.96,103.19,80.17,103.19z M58.29,148.4 c0.09,0.18,0.26,0.28,0.45,0.28c0.07,0,0.15-0.02,0.22-0.05c0.25-0.12,0.35-0.42,0.23-0.67l-7.38-15.15 c-0.12-0.25-0.42-0.35-0.67-0.23c-0.25,0.12-0.35,0.42-0.23,0.67L58.29,148.4z M170.53,99.39c0.07,0,0.14-0.01,0.21-0.04 c0.05-0.02,4.82-2.14,10.33-1.04c0.27,0.06,0.53-0.12,0.59-0.39c0.05-0.27-0.12-0.53-0.39-0.59c-5.84-1.16-10.74,1.02-10.94,1.11 c-0.25,0.11-0.36,0.41-0.25,0.66C170.15,99.28,170.33,99.39,170.53,99.39z M173.73,89.91c0.06,0,5.68-0.21,8.05,0.52 c0.05,0.02,0.1,0.02,0.15,0.02c0.21,0,0.41-0.14,0.48-0.35c0.08-0.26-0.07-0.54-0.33-0.63c-2.53-0.78-8.14-0.58-8.38-0.57 c-0.28,0.01-0.49,0.24-0.48,0.52C173.22,89.7,173.43,89.93,173.73,89.91z M106.44,105.5c-0.22-0.04-5.5-0.97-9.01,0.79 c-0.25,0.12-0.35,0.42-0.22,0.67c0.09,0.18,0.26,0.28,0.45,0.28c0.08,0,0.15-0.02,0.22-0.05c3.21-1.61,8.33-0.71,8.39-0.7 c0.27,0.05,0.53-0.13,0.58-0.4C106.89,105.81,106.71,105.55,106.44,105.5z M172.49,105.68c-0.25,0.11-0.38,0.4-0.27,0.65 c0.08,0.19,0.27,0.31,0.46,0.31c0.06,0,0.13-0.01,0.19-0.04c0.05-0.02,5.3-2.17,9.09-0.46c0.25,0.11,0.55,0,0.66-0.25 c0.11-0.25,0-0.55-0.25-0.66C178.19,103.34,172.72,105.58,172.49,105.68z M178.43,134.78c-0.28-0.04-0.53,0.14-0.57,0.41 l-1.08,6.78c-0.04,0.27,0.14,0.53,0.42,0.57c0.03,0,0.05,0.01,0.08,0.01c0.24,0,0.45-0.18,0.49-0.42l1.08-6.78 C178.89,135.08,178.71,134.82,178.43,134.78z M182.95,136.96c-0.27-0.02-0.52,0.17-0.55,0.45l-0.66,6.64 c-0.03,0.27,0.17,0.52,0.45,0.55c0.02,0,0.03,0,0.05,0c0.25,0,0.47-0.19,0.5-0.45l0.66-6.64 C183.43,137.23,183.23,136.99,182.95,136.96z M184.87,120.88c-0.06,0.01-6.4,1.25-8.75-0.34c-0.15-0.1-0.33-0.11-0.49-0.04 c-0.16,0.07-0.27,0.23-0.29,0.4l-0.41,3.65c-0.03,0.27,0.17,0.52,0.44,0.55c0.02,0,0.04,0,0.06,0c0.25,0,0.47-0.19,0.5-0.44 l0.32-2.92c2.98,1.26,8.55,0.17,8.81,0.12c0.27-0.05,0.45-0.32,0.39-0.59C185.41,121.01,185.15,120.83,184.87,120.88z M188,136.46 c-0.28,0-0.5,0.22-0.5,0.5v7.13c0,0.28,0.22,0.5,0.5,0.5s0.5-0.22,0.5-0.5v-7.13C188.5,136.69,188.28,136.46,188,136.46z M192.08,134.68c-0.05-0.27-0.32-0.45-0.58-0.4c-0.27,0.05-0.45,0.31-0.4,0.58l1.38,7.28c0.04,0.24,0.25,0.41,0.49,0.41 c0.03,0,0.06,0,0.09-0.01c0.27-0.05,0.45-0.31,0.4-0.58L192.08,134.68z M147.72,209.95c-0.16,0.08-15.94,7.7-35.33,9.22 c-0.09,0.01-0.17,0.04-0.24,0.09l-3.25-76.38C129.44,111,130.67,78.33,130.68,78c0.01-0.28-0.21-0.51-0.48-0.52 c-0.01,0-0.01,0-0.02,0c-0.27,0-0.49,0.21-0.5,0.48c-0.01,0.32-1.23,32.81-21.71,64.5c-0.06,0.09-0.08,0.19-0.08,0.29l4.03,94.83 c0.01,0.27,0.23,0.48,0.5,0.48c0.01,0,0.01,0,0.02,0c0.28-0.01,0.49-0.25,0.48-0.52l-0.74-17.46c0.07,0.04,0.15,0.07,0.24,0.07 c0.01,0,0.03,0,0.04,0c19.58-1.53,35.53-9.24,35.69-9.32c0.25-0.12,0.35-0.42,0.23-0.67C148.26,209.93,147.96,209.82,147.72,209.95 z M172.56,119.74c0.13-0.24,0.04-0.55-0.2-0.68c-0.24-0.13-0.55-0.04-0.68,0.2c-0.14,0.26-14.26,26.7-12.74,50.91 c0.02,0.27,0.24,0.47,0.5,0.47c0.01,0,0.02,0,0.03,0c0.28-0.02,0.49-0.25,0.47-0.53C158.43,146.2,172.42,120,172.56,119.74z M152.3,147.68c0,0-0.01,0-0.01,0c-0.27,0-0.49,0.21-0.5,0.49l-0.85,31.32c-0.01,0.28,0.21,0.51,0.49,0.51c0,0,0.01,0,0.01,0 c0.27,0,0.49-0.21,0.5-0.49l0.85-31.32C152.79,147.92,152.58,147.69,152.3,147.68z M173.81,130.89c-0.27-0.05-0.54,0.12-0.59,0.39 l-1.6,7.78c-0.05,0.27,0.12,0.54,0.39,0.59c0.03,0.01,0.07,0.01,0.1,0.01c0.23,0,0.44-0.16,0.49-0.4l1.6-7.78 C174.26,131.21,174.08,130.94,173.81,130.89z M181.82,114.15c0.06,0.02,0.11,0.03,0.17,0.03c0.21,0,0.4-0.13,0.47-0.33 c0.09-0.26-0.04-0.55-0.3-0.64c-2.64-0.94-7.33-0.09-7.53-0.06c-0.27,0.05-0.45,0.31-0.4,0.58c0.05,0.27,0.31,0.46,0.58,0.4 C174.85,114.13,179.44,113.3,181.82,114.15z" style="fill: inherit;"/><path d="M105.78,178.25c-1.63,0.07-2.9,1.45-2.83,3.08c0.03,0.79,0.37,1.52,0.96,2.05c0.55,0.5,1.26,0.78,2,0.78 c0.04,0,0.09,0,0.13,0c1.63-0.07,2.9-1.45,2.83-3.08c-0.03-0.79-0.37-1.52-0.96-2.05C107.33,178.49,106.58,178.22,105.78,178.25z M105.99,183.17c-0.52,0.02-1.02-0.16-1.41-0.51c-0.39-0.35-0.61-0.84-0.63-1.36c-0.05-1.08,0.79-1.99,1.87-2.04 c0.03,0,0.06,0,0.09,0c0.49,0,0.96,0.18,1.32,0.52c0.39,0.35,0.61,0.84,0.63,1.36C107.91,182.2,107.07,183.12,105.99,183.17z M104.7,153.03c-1.63,0.07-2.9,1.45-2.83,3.08c0.03,0.79,0.37,1.52,0.96,2.05c0.55,0.5,1.25,0.78,2,0.78c0.04,0,0.09,0,0.13,0 c1.63-0.07,2.9-1.45,2.83-3.08c-0.03-0.79-0.37-1.52-0.96-2.05C106.25,153.27,105.49,152.99,104.7,153.03z M104.91,157.94 c-0.52,0.02-1.02-0.16-1.41-0.51c-0.39-0.35-0.61-0.84-0.63-1.36c-0.05-1.08,0.79-1.99,1.87-2.04c0.03,0,0.06,0,0.09,0 c0.49,0,0.96,0.18,1.32,0.52c0.39,0.35,0.61,0.84,0.63,1.36C106.83,156.98,105.99,157.9,104.91,157.94z M105.24,165.64 c-0.79,0.03-1.52,0.37-2.05,0.96c-0.53,0.58-0.81,1.34-0.78,2.13s0.37,1.52,0.96,2.05c0.55,0.51,1.26,0.78,2,0.78 c0.04,0,0.09,0,0.13,0c0.79-0.03,1.52-0.37,2.05-0.96c0.53-0.58,0.81-1.34,0.78-2.13s-0.37-1.52-0.96-2.05 C106.79,165.88,106.04,165.61,105.24,165.64z M106.81,169.92c-0.35,0.39-0.84,0.61-1.36,0.63c-0.52,0.02-1.02-0.16-1.41-0.51 c-0.39-0.35-0.61-0.84-0.63-1.36c-0.02-0.52,0.16-1.02,0.51-1.41c0.35-0.39,0.84-0.61,1.36-0.63c0.03,0,0.06,0,0.09,0 c0.49,0,0.96,0.18,1.32,0.52c0.39,0.35,0.61,0.84,0.63,1.36C107.35,169.04,107.17,169.54,106.81,169.92z M106.32,190.86 c-1.63,0.07-2.9,1.45-2.83,3.08c0.03,0.79,0.37,1.52,0.96,2.05c0.55,0.51,1.26,0.78,2,0.78c0.04,0,0.09,0,0.13,0 c0.79-0.03,1.52-0.37,2.05-0.96c0.53-0.58,0.81-1.34,0.78-2.13c-0.03-0.79-0.37-1.52-0.96-2.05 C107.87,191.1,107.12,190.82,106.32,190.86z M107.89,195.14c-0.35,0.39-0.84,0.61-1.36,0.63c-0.53,0.02-1.02-0.16-1.41-0.51 c-0.39-0.35-0.61-0.84-0.63-1.36c-0.05-1.08,0.79-1.99,1.87-2.04c0.03,0,0.06,0,0.09,0c0.49,0,0.96,0.18,1.32,0.52 c0.39,0.35,0.61,0.84,0.63,1.36C108.43,194.26,108.25,194.76,107.89,195.14z M104.04,206.56c0.03,0.79,0.37,1.52,0.96,2.05 c0.55,0.51,1.26,0.78,2,0.78c0.04,0,0.09,0,0.13,0c0.79-0.03,1.52-0.37,2.05-0.96c0.53-0.58,0.81-1.34,0.78-2.13 c-0.03-0.79-0.37-1.52-0.96-2.05c-0.58-0.54-1.33-0.82-2.13-0.78C105.23,203.54,103.97,204.93,104.04,206.56z M106.99,204.47 c0.49,0,0.96,0.18,1.32,0.52c0.39,0.35,0.61,0.84,0.63,1.36s-0.16,1.02-0.51,1.41c-0.35,0.39-0.84,0.61-1.36,0.63 c-0.52,0.01-1.02-0.16-1.41-0.51c-0.39-0.35-0.61-0.84-0.63-1.36c-0.05-1.08,0.79-2,1.87-2.04 C106.94,204.47,106.96,204.47,106.99,204.47z M107.41,216.09c-1.63,0.07-2.9,1.45-2.83,3.08c0.03,0.79,0.37,1.52,0.96,2.05 c0.55,0.51,1.26,0.78,2,0.78c0.04,0,0.09,0,0.13,0c1.63-0.07,2.9-1.45,2.83-3.08c0,0,0,0,0,0 C110.42,217.28,109.03,216,107.41,216.09z M107.62,221c-0.52,0.01-1.02-0.16-1.41-0.51c-0.39-0.35-0.61-0.84-0.63-1.36 c-0.05-1.08,0.79-1.99,1.87-2.04c0.03,0,0.06,0,0.08,0c1.04,0,1.91,0.82,1.96,1.87C109.54,220.04,108.69,220.95,107.62,221z" style="fill: inherit;"/></g><g id="__id191_szpcf5idmp"><path d="M111.93,270.29c-0.06,0-0.12-0.01-0.18-0.03l-20.58-7.91c-0.26-0.1-0.39-0.39-0.29-0.65s0.39-0.39,0.65-0.29 l20.58,7.91c0.26,0.1,0.39,0.39,0.29,0.65C112.32,270.17,112.13,270.29,111.93,270.29z" style="fill: rgb(255, 255, 255);"/></g></svg>