<svg xmlns="http://www.w3.org/2000/svg" xmlns:xlink="http://www.w3.org/1999/xlink" preserveAspectRatio="xMidYMid meet" version="1.0" viewBox="-1.1 -6.6 212.5 473.3" zoomAndPan="magnify" style="fill: rgb(0, 0, 0);" original_string_length="18158"><g id="__id237_szpcf5idmp"><path d="M166.27,451.64c-13.28,12.42-34.47,3.57-34.47-11.75c0-11.43,3.7-30.25,5.15-37.17 c0.01-0.01,0.01-0.02,0.01-0.02c0.34-1.67,0.56-2.64,0.56-2.64s-2.49-20.25-5.29-39.73c-1.72-12-3.57-23.7-5.03-30.22 c-3.83-17.11-10.21-58.47-10.21-58.47c-10.21-25.79,10.47-39.32,31.15-17.87c20.68,21.44-1.53,35.49,8.68,60 c4.4,10.56,5.34,27.56,4.98,43.5c-0.33,14.74-1.76,28.57-2.59,35.54c-0.37,3.04,0.05,6.11,1.21,8.94 C165.14,413.27,176.23,442.31,166.27,451.64z M51.52,452.52c13.28,12.42,34.47,3.57,34.47-11.75c0-11.43-3.7-30.25-5.15-37.17 c-0.01-0.01-0.01-0.02-0.01-0.02c-0.34-1.67-0.56-2.64-0.56-2.64s2.49-20.25,5.29-39.73c1.72-12,3.57-23.7,5.03-30.22 c3.83-17.11,10.21-58.47,10.21-58.47c10.21-25.79-10.47-39.32-31.15-17.87c-20.68,21.44,1.53,35.49-8.68,60 c-4.4,10.56-5.34,27.56-4.98,43.5c0.33,14.74,1.76,28.57,2.59,35.54c0.37,3.04-0.05,6.11-1.21,8.94 C52.65,414.15,41.56,443.19,51.52,452.52z" style="fill: rgb(235, 139, 81);"/></g><g id="__id238_szpcf5idmp"><path d="M166.27,451.64c-13.28,12.42-34.47,3.57-34.47-11.75c0-11.43,3.7-30.25,5.15-37.17 c0.01-0.01,0.01-0.02,0.01-0.02c0.34-1.67,0.56-2.64,0.56-2.64s-2.49-20.25-5.29-39.73c13.46,1.03,24.13-1.4,29.57-3.06 c-0.33,14.74-1.76,28.57-2.59,35.54c-0.37,3.04,0.05,6.11,1.21,8.94C165.14,413.27,176.23,442.31,166.27,451.64z M51.52,452.52 c13.28,12.42,34.47,3.57,34.47-11.75c0-11.43-3.7-30.25-5.15-37.17c-0.01-0.01-0.01-0.02-0.01-0.02c-0.34-1.67-0.56-2.64-0.56-2.64 s2.49-20.25,5.29-39.73c-13.46,1.03-24.13-1.4-29.57-3.06c0.33,14.74,1.76,28.57,2.59,35.54c0.37,3.04-0.05,6.11-1.21,8.94 C52.65,414.15,41.56,443.19,51.52,452.52z" style="fill: rgb(255, 255, 255);"/></g><g id="__id239_szpcf5idmp"><path d="M167.02,452.75c-13.94,13.03-36.17,3.75-36.17-12.33c0-10.07,3.82-30.73,5.04-37.11c0.08-0.41,0.66-0.4,0.74,0.01l2.16,11.3 l0.13-0.01c1.18-4.19,5.67-7.31,11.04-7.31c4.91,0,9.09,2.61,10.66,6.27l0.26-0.01l0-10.74c0-0.52,0.71-0.66,0.9-0.18 C167.08,415.88,176.88,443.52,167.02,452.75z M50.77,453.64c13.94,13.03,36.17,3.75,36.17-12.33c0-10.07-3.82-30.73-5.04-37.11 c-0.08-0.41-0.66-0.4-0.74,0.01L79,415.5l-0.13-0.01c-1.18-4.19-5.67-7.31-11.04-7.31c-4.91,0-9.09,2.61-10.66,6.27l-0.26-0.01 l0-10.74c0-0.52-0.71-0.66-0.9-0.18C50.71,416.77,40.91,444.41,50.77,453.64z" style="fill: inherit;"/></g><g id="__id240_szpcf5idmp"><path d="M161.36,413.4c-0.08-0.26-0.36-0.41-0.63-0.33c-0.26,0.08-0.41,0.36-0.33,0.63 c0.02,0.07,0.94,3.02,1.65,7.08c-2.83-0.82-12.73-3.12-23.79,0.88c0.43-3.97,1.12-6.86,1.14-6.93c0.07-0.27-0.1-0.54-0.37-0.6 c-0.27-0.07-0.54,0.1-0.6,0.37c-0.19,0.76-4.53,18.82,2.34,27.41c2.32,2.9,5.65,4.37,9.92,4.37c0.12,0,0.24,0,0.36,0 c4.36-0.08,7.67-1.66,9.84-4.68C167.32,432.63,161.6,414.18,161.36,413.4z M162.24,421.88c0.36,2.25,0.63,4.78,0.66,7.31 c-1.59-0.52-12.57-3.78-24.89,0.87c-0.16-2.52-0.06-5.04,0.14-7.29C149.91,418.33,160.41,421.3,162.24,421.88z M160.08,441 c-1.98,2.75-5.02,4.18-9.05,4.26c-4.1,0.08-7.3-1.26-9.48-3.99c-2.13-2.66-3.1-6.38-3.45-10.18c13-5.03,24.55-0.94,24.66-0.9 c0.05,0.02,0.09,0.02,0.14,0.02C162.84,434.22,162.12,438.16,160.08,441z M78.76,415.01c-0.27,0.07-0.43,0.34-0.37,0.6 c0.02,0.07,0.71,2.96,1.14,6.93c-11.06-4-20.96-1.7-23.79-0.88c0.72-4.06,1.63-7.01,1.65-7.08c0.08-0.26-0.06-0.54-0.33-0.63 c-0.26-0.08-0.54,0.06-0.63,0.33c-0.25,0.78-5.97,19.24,0.46,28.19c2.17,3.02,5.48,4.59,9.84,4.68c0.12,0,0.24,0,0.36,0 c4.27,0,7.6-1.47,9.92-4.37c6.87-8.59,2.53-26.65,2.34-27.41C79.29,415.11,79.03,414.94,78.76,415.01z M79.64,423.65 c0.2,2.25,0.29,4.77,0.14,7.29c-12.31-4.64-23.29-1.39-24.88-0.87c0.03-2.53,0.3-5.06,0.66-7.31 C57.38,422.18,67.88,419.22,79.64,423.65z M76.24,442.16c-2.18,2.73-5.4,4.05-9.48,3.99c-4.03-0.08-7.07-1.51-9.05-4.26 c-2.04-2.84-2.76-6.78-2.82-10.78c0.05,0,0.09,0,0.14-0.02c0.11-0.04,11.64-4.14,24.66,0.9C79.34,435.79,78.37,439.5,76.24,442.16z" style="fill: rgb(255, 255, 255);"/></g><g id="__id241_szpcf5idmp"><path d="M62.52,42.18c-4.64,2.23-8.4,8.2-14.4,10.45l-1.94,9.9l-13.02-3.51l2.67-8.2c-2.43-2.44-3.23-6.07-3.48-8.59 c-0.2-1.98-0.91-3.86-2.12-5.44c-2.91-3.79-7.67-10.52-5.47-11.24c2.8-0.92,9.7,7.3,10.91,8.77c0.04,0.05,0.11,0,0.09-0.06 c-4.72-15.09-4.37-20.84-1.48-19.93c2.6,0.82,5.77,13.82,6.4,16.8c0.01,0.07,0.51,0.01,0.51-0.06c-0.01-3.46-0.17-20.52,3.08-20.66 c3.48-0.15,2.9,4,2.96,20.61c0,0.07,0.1,0.07,0.11,0c3.66-15.75,6.97-19.4,9.18-17.07c1.74,1.84-4.44,21.63-4.44,21.63 c-0.01,0.02-0.01,0.03-0.01,0.05c-0.95,6.12,2.41,2.81,7.65,0.45C64.96,33.75,68.85,39.14,62.52,42.18z M157.37,187.77l-11.62,12.13 c0,0-9.06,47.62,6,44.2s14.94-9.35,13.28-9.99c-1.66-0.64-4.47,1.15-4.47,1.15s0.51-2.81,3.02-12.26c2.51-9.45-2-14.68-2-14.68 l2-3.15L157.37,187.77z" style="fill: rgb(235, 139, 81);"/></g><g id="__id242_szpcf5idmp"><path d="M148.66,199.27l19.8,87.86c0.36,1.58-0.56,3.17-2.11,3.63c-3.58,1.07-10.23,2.72-17.11,2.69 c-0.53,0-1.04,0.12-1.51,0.38c-2.03,1.11-8.63,4.11-18.22,2.6c-0.63-0.1-1.27-0.03-1.84,0.25c-2.32,1.13-9.5,3.94-19.95,1.52 c-0.46-0.11-0.94-0.11-1.4,0c-10.45,2.42-17.63-0.39-19.95-1.52c-0.57-0.28-1.22-0.35-1.84-0.25c-9.59,1.51-16.19-1.49-18.22-2.6 c-0.46-0.25-0.98-0.38-1.51-0.38c-6.89,0.03-13.54-1.63-17.12-2.7c-1.54-0.46-2.46-2.04-2.12-3.61l19.06-87.26l1.36-8.29 c0.25-1.49,1.53-2.58,3.04-2.58h37.99h36.05c1.33,0,2.51,0.86,2.93,2.12l2.58,7.84C148.61,199.08,148.64,199.18,148.66,199.27z" style="fill: rgb(235, 76, 48);"/></g><g id="__id243_szpcf5idmp"><path d="M209.84,163.76c-1.59,14.72-25.14,32.16-35.33,32.84l-7.21,8.07c-1.43,1.6-3.76,2.04-5.68,1.06 c-3.61-1.85-8.95-5.32-9.98-10.03l5.17-9.56c0,0-5.45-8.7,9.87-27.25c0,0-6.2-7.12-8.47-9.61c0,0-0.16,47.95-5.15,61.09 c0,0,1.34,5.05,1.65,10.76c0.07,1.37-0.75,2.63-2.04,3.08c-5.43,1.92-21.23,6.57-45.63,6.09c-32.56-0.64-44.61-4.47-47.72-5.73 c-0.54-0.22-0.86-0.76-0.79-1.34c0.18-1.65,0.6-5.11,1.27-7.49c0.67-2.38,1.08-3.53,1.88-5.22c0,0-7.27-5.29-4.65-82.77 c-8.47,1.96-13.3,0.39-24.81,0c-20.04-0.68-31.04-5.05-32.17-21.02s27.71-41.36,27.71-41.36l3.05-8.66 c0.37-1.06,1.28-1.85,2.39-2.02c6.58-1.05,11.96,1.65,14.41,3.21c0.87,0.56,1.29,1.6,1.04,2.6l-2.66,10.49 c3.4,6.52,1.02,14.66,1.02,14.66c12.47-5.7,28.18-7.22,37.18-7.6c5.91-3.18,13.83-4.71,24.67-3.56c0,0,24.9,4.14,36.9,11.38 c12,7.25,26.27,8.38,31.48,23.1C182.44,123.67,211.43,149.03,209.84,163.76z" style="fill: rgb(191, 217, 255);"/></g><g id="__id244_szpcf5idmp"><path d="M144.02,55.63c-0.7,24.64,9.28,27.32,8.15,31.34s-9.02,1.44-9.02,1.44s3.88,15.79-8.96,7.76 c-18.31-11.45-16.66-61.75-16.66-61.75C121.41,18.13,144.72,30.99,144.02,55.63z M74.35,55.63c0.7,24.64-9.28,27.32-8.15,31.34 c1.13,4.02,9.02,1.44,9.02,1.44s-3.88,15.79,8.96,7.76c18.31-11.45,16.66-61.75,16.66-61.75C96.96,18.13,73.64,30.99,74.35,55.63z" style="fill: inherit;"/></g><g id="__id245_szpcf5idmp"><path d="M129.61,91.34c-2.79,8.64-8.1,17.95-12.61,24.98c-4.28,6.67-7.84,11.28-7.84,11.28v0.13 c0,0-3.55-4.6-7.83-11.26c-4.51-7.03-9.82-16.35-12.62-25c-5.44-16.85,12.02-22.04,12.02-22.04h8.34l0.09,10.85l0.09-10.98h8.34 C117.59,69.3,135.05,74.49,129.61,91.34z" style="fill: rgb(255, 255, 255);"/></g><g id="__id246_szpcf5idmp"><path d="M138.92,39.3l-43.5-10.2L79.69,41.72c0,0-6.32-0.32-2.68-15.64c0.09-0.39,0.21-0.75,0.35-1.09 c7.63-24.19,23.82-20.5,23.82-20.5c0.8-2.94,16.29-11.08,30.98,6.28S138.92,39.3,138.92,39.3z" style="fill: inherit;"/></g><g id="__id247_szpcf5idmp"><path d="M135.63,39.96c0,6.57-0.8,12.56-3.95,17.53c-0.63,0.99-1.35,1.95-2.18,2.86c-2.25,2.47-5.32,4.62-8.69,6.21 c0,0,0,0,0,0.01c0.12,1.57,0.35,3.03,0.63,4.33c0.39,1.84,0.87,3.38,1.3,4.52c0.54,1.46,0.17,3.1-0.97,4.17 c-3.56,3.34-10.89,10.01-12.7,10.01c-1.78,0-8.27-6.36-11.47-9.61c-1-1.02-1.37-2.51-0.92-3.86c0.45-1.35,0.76-2.95,0.97-4.6 c0.2-1.53,0.32-3.1,0.38-4.53v-0.01c-3.19-1.4-6.12-3.32-8.36-5.63c-1.2-1.24-2.22-2.59-3.08-4.03c-2.98-4.96-4.07-11-4.07-17.36 c0-15.45,11.89-27.98,26.55-27.98C123.74,11.98,135.63,24.51,135.63,39.96z" style="fill: rgb(235, 139, 81);"/></g><g id="__id248_szpcf5idmp"><path d="M137.94,33.68c-5.58,9.11-9.65-4.68-9.65-4.68l-18.87-1.69c-0.7-0.06-1.3-0.51-1.57-1.16c0,0-5.49-9.4-5.48-12.62 c-3.01,7.09-13.72,28.52-21.39,21.67c-9.04-8.08,2.79-22.29,22.02-25.1c0,0-0.01,0.02-0.02,0.05c0.11-0.07,0.22-0.13,0.34-0.18 C124.57,2,143.49,24.62,137.94,33.68z" style="fill: inherit;"/></g><g id="__id249_szpcf5idmp"><path d="M88.08,42.45c2.3,5.27,1.65,10.64-1.45,12c-3.1,1.36-7.48-1.82-9.79-7.09s-1.65-10.64,1.45-12 S85.77,37.18,88.08,42.45z M130.01,42.45c-2.3,5.27-1.65,10.64,1.45,12s7.48-1.82,9.79-7.09s1.65-10.64-1.45-12 C136.7,34.01,132.32,37.18,130.01,42.45z" style="fill: rgb(235, 139, 81);"/></g><g id="__id250_szpcf5idmp"><path d="M117,116.32c-4.28,6.67-7.84,11.28-7.84,11.28v0.13c0,0-3.55-4.6-7.83-11.26c1.44-4.51,3.37-9.68,4-11.4 c0.31-0.83,0.25-1.76-0.15-2.55l-2.34-4.57c-0.74-1.46-0.27-3.24,1.11-4.13l3.36-2.19c1.06-0.69,2.43-0.69,3.48,0l3.37,2.19 c1.37,0.89,1.85,2.67,1.1,4.13l-2.33,4.57c-0.41,0.79-0.46,1.72-0.16,2.55C113.4,106.81,115.49,111.88,117,116.32z" style="fill: rgb(235, 76, 48);"/></g><g id="__id251_szpcf5idmp"><path d="M98.03,66.99c3.54,1.55,7.42,2.44,11.04,2.44c3.8,0,7.96-1.07,11.74-2.86c0.12,1.57,0.35,3.03,0.63,4.33 c-3.82,2.2-8.32,3.57-12.37,3.57c-3.77,0-7.86-1.09-11.42-2.95C97.85,69.99,97.97,68.42,98.03,66.99z M120.99,37.3 c-1.88,0-3.4,1.52-3.4,3.4s1.52,3.4,3.4,3.4s3.4-1.52,3.4-3.4S122.87,37.3,120.99,37.3z M97.33,37.3c-1.88,0-3.4,1.52-3.4,3.4 s1.52,3.4,3.4,3.4s3.4-1.52,3.4-3.4S99.21,37.3,97.33,37.3z M114.84,30.01c0.16,1.4,1.43,2.41,2.83,2.25l6.6-0.76 c1.4-0.16,2.41-1.43,2.25-2.83s-1.43-2.41-2.83-2.25l-6.59,0.76C115.68,27.34,114.68,28.61,114.84,30.01L114.84,30.01z M94.19,31.5 l6.59,0.76c1.4,0.16,2.67-0.84,2.83-2.25v0c0.16-1.4-0.84-2.67-2.25-2.83l-6.59-0.76c-1.4-0.16-2.67,0.84-2.83,2.25 C91.79,30.07,92.79,31.34,94.19,31.5z M106.35,49.67c0.01-0.02,1.38-1.73,3.28-1.8c1.21-0.05,2.4,0.57,3.55,1.83 c0.1,0.11,0.23,0.16,0.37,0.16c0.12,0,0.24-0.04,0.34-0.13c0.2-0.19,0.22-0.5,0.03-0.71c-1.36-1.49-2.83-2.2-4.33-2.16 c-2.37,0.09-3.96,2.1-4.03,2.19c-0.17,0.22-0.13,0.53,0.09,0.7C105.87,49.92,106.18,49.89,106.35,49.67z M135.04,43.09 c0.06,0.02,0.12,0.03,0.18,0.03c0.2,0,0.39-0.12,0.47-0.32c0.75-2,1.72-3.23,2.8-3.55c1.01-0.31,1.84,0.26,1.88,0.29 c0.22,0.16,0.54,0.11,0.7-0.11c0.16-0.22,0.12-0.54-0.11-0.7c-0.05-0.04-1.23-0.89-2.74-0.45c-1.42,0.42-2.58,1.82-3.47,4.16 C134.65,42.7,134.78,42.99,135.04,43.09z M77.78,39.53c0.03-0.02,0.85-0.6,1.88-0.29c1.08,0.33,2.05,1.56,2.8,3.55 c0.08,0.2,0.27,0.32,0.47,0.32c0.06,0,0.12-0.01,0.18-0.03c0.26-0.1,0.39-0.39,0.29-0.64c-0.88-2.34-2.05-3.74-3.47-4.16 c-1.51-0.45-2.69,0.41-2.74,0.45c-0.22,0.16-0.27,0.47-0.11,0.7C77.24,39.64,77.56,39.69,77.78,39.53z M92.71,97.7 c0.62,0.79,1.73,1.04,2.64,0.6l13.19-6.42c0.33-0.16,0.72-0.16,1.05,0.02l12.09,6.41c0.32,0.17,0.67,0.25,1.01,0.25 c0.55,0,1.1-0.22,1.52-0.63l5.5-5.47c0.2-0.19,0.2-0.51,0-0.71c-0.19-0.2-0.51-0.2-0.71,0l-5.5,5.47c-0.36,0.36-0.91,0.44-1.36,0.2 l-12.09-6.41c-0.61-0.32-1.34-0.33-1.95-0.03l-13.19,6.42c-0.48,0.24-1.08,0.1-1.41-0.32l-4.17-5.28c-0.17-0.22-0.49-0.25-0.7-0.08 c-0.22,0.17-0.25,0.49-0.08,0.7L92.71,97.7z M108.79,90.01c0.08,0.06,0.18,0.08,0.28,0.08c0.09,0,0.17-0.02,0.25-0.07 c0.45-0.26,11.03-6.45,14.04-12.34c0.13-0.25,0.03-0.55-0.22-0.67c-0.24-0.13-0.55-0.03-0.67,0.22 c-2.63,5.12-11.71,10.76-13.39,11.77c-1.69-1.16-11.13-7.72-12.68-11.72c-0.1-0.26-0.39-0.38-0.65-0.29 c-0.26,0.1-0.38,0.39-0.29,0.65C97.28,82.31,108.32,89.7,108.79,90.01z M112.75,102.91c-0.16-0.04-3.93-0.95-7.41,0 c-0.27,0.07-0.42,0.35-0.35,0.61c0.06,0.22,0.26,0.37,0.48,0.37c0.04,0,0.09-0.01,0.13-0.02c3.22-0.88,6.87-0.01,6.91,0 c0.27,0.07,0.54-0.1,0.6-0.37C113.18,103.24,113.02,102.97,112.75,102.91z M158.2,149.76c0.28,0,0.5-0.22,0.5-0.5v-16.69l4.87-14.73 c0.09-0.26-0.06-0.54-0.32-0.63c-0.27-0.09-0.55,0.06-0.63,0.32l-4.9,14.81c-0.02,0.05-0.03,0.1-0.03,0.16v16.77 C157.7,149.54,157.92,149.76,158.2,149.76z M182.59,152.25c-9.71-1.73-16.24,6.23-16.31,6.31c-0.17,0.22-0.14,0.53,0.08,0.7 c0.09,0.07,0.2,0.11,0.31,0.11c0.15,0,0.29-0.06,0.39-0.19c0.06-0.08,6.22-7.58,15.35-5.95c0.27,0.05,0.53-0.13,0.58-0.4 C183.04,152.56,182.86,152.3,182.59,152.25z M155.07,201.81c0.03,0,0.06,0.01,0.08,0.01c0.24,0,0.45-0.17,0.49-0.42 c0.33-1.96,2.33-26.8,2.41-27.86c0.02-0.28-0.18-0.52-0.46-0.54c-0.27-0.02-0.52,0.18-0.54,0.46c-0.02,0.26-2.08,25.85-2.4,27.77 C154.62,201.51,154.8,201.77,155.07,201.81z M57.01,128.23c0.06,0,0.11-0.01,0.17-0.03c0.26-0.09,0.39-0.38,0.3-0.64l-5.23-14.47 c-0.09-0.26-0.38-0.39-0.64-0.3c-0.26,0.09-0.39,0.38-0.3,0.64l5.23,14.47C56.61,128.1,56.81,128.23,57.01,128.23z M47.1,85.13 c-0.27-0.06-0.54,0.11-0.6,0.38c-0.05,0.23-5.23,22.9-22.37,25.21c-0.27,0.04-0.47,0.29-0.43,0.56c0.03,0.25,0.25,0.43,0.5,0.43 c0.02,0,0.04,0,0.07,0c17.84-2.4,23.17-25.75,23.22-25.99C47.54,85.45,47.37,85.19,47.1,85.13z M165.37,197.73l-5.13,7.19 c-0.16,0.22-0.11,0.54,0.12,0.7c0.09,0.06,0.19,0.09,0.29,0.09c0.16,0,0.31-0.07,0.41-0.21l5.13-7.19c0.16-0.22,0.11-0.54-0.12-0.7 C165.84,197.46,165.53,197.51,165.37,197.73z M161.12,195.08l-4,7.98c-0.12,0.25-0.02,0.55,0.22,0.67c0.07,0.04,0.15,0.05,0.22,0.05 c0.18,0,0.36-0.1,0.45-0.28l4-7.98c0.12-0.25,0.02-0.55-0.22-0.67C161.54,194.73,161.24,194.83,161.12,195.08z M174.64,196.12 l-4.6-1.3c-0.26-0.08-0.54,0.08-0.62,0.35c-0.08,0.27,0.08,0.54,0.35,0.62l4.6,1.3c0.04,0.01,0.09,0.02,0.14,0.02 c0.22,0,0.42-0.14,0.48-0.36C175.07,196.47,174.91,196.19,174.64,196.12z M37.65,63.94c0.06,0.02,0.12,0.03,0.17,0.03 c0.2,0,0.39-0.13,0.47-0.33l3.13-8.46c0.1-0.26-0.04-0.55-0.3-0.64c-0.26-0.1-0.55,0.04-0.64,0.3l-3.13,8.46 C37.25,63.56,37.39,63.84,37.65,63.94z M32.45,63.94c0.06,0.02,0.12,0.03,0.18,0.03c0.2,0,0.39-0.12,0.47-0.32l3.4-8.98 c0.1-0.26-0.03-0.55-0.29-0.64c-0.26-0.1-0.55,0.03-0.64,0.29l-3.4,8.98C32.06,63.55,32.19,63.84,32.45,63.94z M43.42,65.32 c0.03,0.01,0.06,0.01,0.09,0.01c0.24,0,0.45-0.17,0.49-0.41l1.48-7.83c0.05-0.27-0.13-0.53-0.4-0.58c-0.27-0.05-0.53,0.13-0.58,0.4 l-1.48,7.83C42.97,65.01,43.15,65.27,43.42,65.32z M43.93,68.6c-0.21,0.18-0.23,0.5-0.05,0.71l1.72,1.97 c0.1,0.11,0.24,0.17,0.38,0.17c0.12,0,0.23-0.04,0.33-0.12c0.21-0.18,0.23-0.5,0.05-0.71l-1.72-1.97 C44.45,68.44,44.14,68.42,43.93,68.6z M112.18,145.87c0,1.64-1.34,2.98-2.98,2.98s-2.98-1.34-2.98-2.98s1.34-2.98,2.98-2.98 S112.18,144.23,112.18,145.87z M111.18,145.87c0-1.09-0.89-1.98-1.98-1.98c-1.09,0-1.98,0.89-1.98,1.98s0.89,1.98,1.98,1.98 C110.29,147.85,111.18,146.96,111.18,145.87z M112.1,159.75c0,1.64-1.34,2.98-2.98,2.98c-1.64,0-2.98-1.34-2.98-2.98 s1.34-2.98,2.98-2.98C110.77,156.77,112.1,158.11,112.1,159.75z M111.1,159.75c0-1.09-0.89-1.98-1.98-1.98s-1.98,0.89-1.98,1.98 s0.89,1.98,1.98,1.98S111.1,160.84,111.1,159.75z M111.95,173.63c0,1.64-1.34,2.98-2.98,2.98s-2.98-1.34-2.98-2.98 s1.34-2.98,2.98-2.98S111.95,171.98,111.95,173.63z M110.95,173.63c0-1.09-0.89-1.98-1.98-1.98s-1.98,0.89-1.98,1.98 s0.89,1.98,1.98,1.98S110.95,174.72,110.95,173.63z M105.92,187.5c0-1.64,1.34-2.98,2.98-2.98c1.64,0,2.98,1.34,2.98,2.98 s-1.34,2.98-2.98,2.98C107.25,190.48,105.92,189.14,105.92,187.5z M106.92,187.5c0,1.09,0.89,1.98,1.98,1.98s1.98-0.89,1.98-1.98 s-0.89-1.98-1.98-1.98S106.92,186.41,106.92,187.5z M111.91,201.38c0,1.64-1.34,2.98-2.98,2.98c-1.64,0-2.98-1.34-2.98-2.98 s1.34-2.98,2.98-2.98C110.57,198.4,111.91,199.74,111.91,201.38z M110.91,201.38c0-1.09-0.89-1.98-1.98-1.98s-1.98,0.89-1.98,1.98 s0.89,1.98,1.98,1.98S110.91,202.47,110.91,201.38z M111.87,215.35c0,1.64-1.34,2.98-2.98,2.98c-1.64,0-2.98-1.34-2.98-2.98 s1.34-2.98,2.98-2.98C110.54,212.38,111.87,213.71,111.87,215.35z M110.87,215.35c0-1.09-0.89-1.98-1.98-1.98s-1.98,0.89-1.98,1.98 s0.89,1.98,1.98,1.98S110.87,216.44,110.87,215.35z M81.71,89.48c-0.07-0.27-0.34-0.43-0.6-0.37c-0.27,0.07-0.43,0.34-0.37,0.6 c4.4,18.08,21.24,42.95,22.62,44.97v79.35c-19.67,0.42-41.38-3.99-41.6-4.03c-0.27-0.06-0.54,0.12-0.59,0.39 c-0.06,0.27,0.12,0.53,0.39,0.59c0.21,0.04,20.11,4.08,39.12,4.08c0.9,0,1.79-0.01,2.68-0.03v15.19c0,0.28,0.22,0.5,0.5,0.5 s0.5-0.22,0.5-0.5v-95.7c0-0.1-0.03-0.2-0.09-0.28C104.09,133.99,86.23,108.06,81.71,89.48z M153.36,211.66 c0.27-0.06,0.44-0.32,0.39-0.59c-0.06-0.27-0.32-0.44-0.59-0.39c-0.18,0.04-18.54,3.82-38.24,3.35v-79.35 c1.45-2.12,20.01-29.49,25.51-49.56c0.07-0.27-0.08-0.54-0.35-0.61c-0.26-0.07-0.54,0.08-0.61,0.35 c-5.66,20.61-25.26,49.09-25.46,49.38c-0.06,0.08-0.09,0.18-0.09,0.28v95.7c0,0.28,0.22,0.5,0.5,0.5s0.5-0.22,0.5-0.5v-15.2 c1.14,0.03,2.28,0.04,3.41,0.04C136.79,215.08,153.18,211.7,153.36,211.66z M141.78,236.68c-0.27,0.03-0.47,0.28-0.44,0.56 l6.63,55.4c0.03,0.25,0.25,0.44,0.5,0.44c0.02,0,0.04,0,0.06,0c0.27-0.03,0.47-0.28,0.44-0.56l-6.63-55.4 C142.3,236.84,142.05,236.64,141.78,236.68z M125.28,240.25c-0.28,0.01-0.49,0.25-0.47,0.53l2.94,54.89 c0.01,0.27,0.23,0.47,0.5,0.47c0.01,0,0.02,0,0.03,0c0.28-0.01,0.49-0.25,0.47-0.53l-2.94-54.89 C125.79,240.44,125.57,240.23,125.28,240.25z M107.78,240.25C107.78,240.25,107.78,240.25,107.78,240.25c-0.28,0-0.5,0.22-0.51,0.49 l-0.76,56.51c0,0.28,0.22,0.5,0.49,0.51c0,0,0,0,0.01,0c0.27,0,0.5-0.22,0.5-0.49l0.76-56.51 C108.28,240.48,108.06,240.25,107.78,240.25z M89.26,240.25c-0.29-0.03-0.51,0.19-0.53,0.47l-3.41,54.89 c-0.02,0.28,0.19,0.51,0.47,0.53c0.01,0,0.02,0,0.03,0c0.26,0,0.48-0.2,0.5-0.47l3.41-54.89C89.74,240.5,89.53,240.27,89.26,240.25z M65.7,293.08c0.25,0,0.46-0.18,0.5-0.44l7.01-55.41c0.03-0.27-0.16-0.52-0.43-0.56c-0.27-0.03-0.52,0.16-0.56,0.43l-7.01,55.41 c-0.03,0.27,0.16,0.52,0.43,0.56C65.66,293.08,65.68,293.08,65.7,293.08z M45.21,41.83c0.08,0.05,0.18,0.08,0.27,0.08 c0.17,0,0.33-0.08,0.42-0.23c1.08-1.7,5.08-2.16,6.53-2.19c0.28-0.01,0.49-0.24,0.49-0.51c-0.01-0.28-0.26-0.49-0.51-0.49 c-0.23,0.01-5.75,0.16-7.35,2.66C44.91,41.37,44.98,41.68,45.21,41.83z M161.65,356.79c-0.14,0.04-14.52,4.51-29.37,3.04 c-0.26-0.02-0.52,0.17-0.55,0.45c-0.03,0.27,0.17,0.52,0.45,0.55c2.13,0.21,4.24,0.3,6.3,0.3c12.58,0,23.34-3.34,23.46-3.38 c0.26-0.08,0.41-0.36,0.33-0.63C162.19,356.85,161.91,356.71,161.65,356.79z M85.53,360.71c-0.2,0.01-20.44,1.18-29.33-3.01 c-0.25-0.12-0.55-0.01-0.67,0.24c-0.12,0.25-0.01,0.55,0.24,0.67c5.87,2.77,16.18,3.28,23.01,3.28c3.78,0,6.5-0.16,6.8-0.18 c0.28-0.02,0.49-0.25,0.47-0.53C86.05,360.91,85.81,360.69,85.53,360.71z" style="fill: inherit;"/></g><g id="__id252_szpcf5idmp"><path d="M98.4,54.49h22.3c0,0-1.53,8.09-11.15,8.09S98.4,54.49,98.4,54.49z" style="fill: rgb(255, 255, 255);"/></g><g id="__id253_szpcf5idmp"><path d="M109.54,63.08c-9.92,0-11.62-8.41-11.64-8.49c-0.03-0.15,0.01-0.3,0.11-0.41c0.1-0.11,0.24-0.18,0.39-0.18h22.3 c0.15,0,0.29,0.07,0.38,0.18c0.1,0.11,0.13,0.27,0.11,0.41C121.17,54.67,119.46,63.08,109.54,63.08z M99.04,54.99 c0.56,1.81,2.83,7.08,10.5,7.08c7.67,0,9.95-5.27,10.5-7.08H99.04z" style="fill: inherit;"/></g></svg>